<svg width="103" height="36" viewBox="0 0 103 36" fill="none" xmlns="http://www.w3.org/2000/svg">
<g clip-path="url(#clip0_239_820)">
<path d="M1.82691 6.06185C1.88991 5.69072 2.0789 5.31958 2.26789 5.01031C2.51988 4.63917 2.77187 4.32989 3.08685 4.08247C3.40183 3.83505 3.77982 3.64948 4.1578 3.52577C4.53578 3.40206 4.91376 3.40206 5.35474 3.52577C6.55168 3.03092 7.81162 2.65979 9.13456 2.28866C10.3945 1.97938 11.7174 1.79381 12.9774 1.73196C14.2373 1.6701 15.4972 1.79381 16.7572 2.10309C18.0171 2.35051 19.2141 2.90721 20.348 3.64948C21.23 4.20618 22.0489 4.94845 22.8049 5.81443C23.4979 6.68041 24.1278 7.60824 24.5688 8.59793C25.3878 10.3299 25.7028 12.1237 25.6398 13.8557C25.5768 15.5876 25.1358 17.1959 24.3798 18.7423C23.6239 20.2268 22.5529 21.5876 21.167 22.701C19.781 23.8144 18.1431 24.6804 16.3162 25.1753C14.9303 25.5464 13.4813 25.732 12.0324 25.732C10.5835 25.732 9.19755 25.6082 7.74862 25.4845V30.2474C7.74862 30.6186 7.74862 30.9897 7.81162 31.3608C7.87462 31.732 7.87462 32.1649 7.81162 32.5361C7.81162 32.9072 7.74862 33.3402 7.68563 33.7113C7.62263 34.0825 7.43364 34.4536 7.18165 34.7629C6.80367 35.4433 6.29969 35.8144 5.60673 35.9381C4.97676 36.0618 4.34679 36.0619 3.77982 35.8144C3.21284 35.6289 2.70887 35.2577 2.26789 34.7629C1.82691 34.268 1.63792 33.6495 1.63792 32.9072V24.1237C1.00795 23.8144 0.566972 23.3814 0.251988 22.8866C0.125994 22.3917 0 21.8969 0 21.4021C0.0629969 20.9072 0.188991 20.4124 0.503976 19.9794C0.81896 19.5464 1.19694 19.1753 1.76391 18.866V6.30927L1.82691 6.06185ZM16.3162 8.16495C14.9303 7.60824 13.4813 7.42268 12.0324 7.6701C10.5835 7.91752 9.19755 8.35051 7.81162 8.96907V19.6082C9.38654 19.8557 10.9615 19.9175 12.5994 19.7938C14.2373 19.6701 15.7492 19.1753 17.0722 18.3093C18.0171 17.6907 18.7101 16.8866 19.0881 15.9588C19.4661 15.0309 19.592 14.0412 19.4661 13.0515C19.3401 12.0619 19.0251 11.134 18.4581 10.268C17.8911 9.40206 17.1982 8.72165 16.3162 8.16495Z" fill="#484A4C"/>
<path d="M29.2936 18.4948C29.3566 18.3093 29.2936 17.8763 29.2306 17.3196C28.7266 17.0103 28.2856 16.6392 27.9706 16.2062C27.6557 15.7732 27.4667 15.2783 27.4667 14.7216C27.4037 14.2268 27.5297 13.7319 27.7817 13.2371C28.0336 12.7423 28.4116 12.3711 28.9786 12.0618C29.7346 11.6289 30.5535 11.567 31.4985 11.8144C32.3804 12.0618 33.1994 12.4948 33.8924 12.9897C34.7113 12.3711 35.5933 11.8763 36.4752 11.4433C37.3572 11.0103 38.3021 10.7629 39.1841 10.5773C40.1291 10.4536 41.074 10.4536 42.019 10.6392C42.9639 10.8247 43.9089 11.2577 44.8538 11.8763C45.2948 12.1856 45.7358 12.5567 46.1768 12.9897C46.6177 13.4227 46.8067 13.9175 46.9327 14.4742C47.1217 15.2783 47.0587 16.0206 46.7437 16.5773C46.4287 17.1959 46.0508 17.6289 45.4838 17.8763C44.9798 18.1237 44.3499 18.2474 43.7199 18.1237C43.0269 18 42.3969 17.6289 41.83 17.0722C41.641 16.9484 41.515 16.8247 41.389 16.7629C41.326 16.701 41.137 16.5773 40.885 16.4536C40.381 16.3299 39.8141 16.3299 39.3101 16.5773C38.8061 16.7629 38.3021 17.0722 37.7982 17.3814C37.2942 17.7526 36.8532 18.1237 36.4752 18.4948C36.0343 18.9278 35.6563 19.299 35.3413 19.6082V32.1031C35.3413 32.5979 35.2153 33.0928 35.0263 33.5258C34.7113 34.268 34.2703 34.8247 33.5774 35.0722C32.8844 35.3196 32.2544 35.4433 31.6245 35.3196C30.9945 35.1959 30.4275 34.8866 29.9236 34.3299C29.4196 33.835 29.2306 33.1546 29.2306 32.3505V18.6185C29.2306 18.7423 29.2306 18.6804 29.2936 18.4948Z" fill="#484A4C"/>
<path d="M56.5083 32.1649C56.4453 32.8454 56.1933 33.4021 55.8153 33.8969C55.4373 34.3917 54.9333 34.7629 54.4294 35.0103C53.9254 35.2577 53.3584 35.2577 52.7914 35.134C52.2245 35.0103 51.6575 34.6392 51.2165 34.0825C50.9645 33.7732 50.7755 33.4021 50.6495 32.9691C50.5235 32.5979 50.3976 32.1649 50.3976 31.732C50.3346 31.299 50.3346 30.866 50.3976 30.433C50.3976 30 50.3976 29.567 50.3976 29.2577C50.3346 27.3402 50.3346 25.4227 50.3976 23.567C50.3976 21.6495 50.3976 19.7938 50.3976 17.8763C50.3976 17.0722 50.3346 16.3299 50.2716 15.5258C50.1456 14.7216 50.2086 13.9175 50.3976 13.1753C50.5865 12.6186 50.8385 12.0619 51.2795 11.6289C51.7205 11.1959 52.1615 10.8866 52.6654 10.7629C53.1694 10.5773 53.7364 10.5773 54.2404 10.701C54.8073 10.8247 55.2483 11.1959 55.6893 11.7526C56.1933 12.433 56.5083 13.0515 56.5083 13.6701C56.5083 14.2887 56.5083 15.0928 56.5083 16.0206C56.5083 17.134 56.5083 18.2474 56.5083 19.3608C56.5083 20.4742 56.5083 21.5876 56.5713 22.6392C56.6342 24.1856 56.6342 25.7938 56.6342 27.3402C56.6342 28.8866 56.6342 30.4948 56.6342 32.0412V32.1649H56.5083Z" fill="#484A4C"/>
<path d="M81.896 32.2886C81.77 33.0928 81.518 33.7732 80.9511 34.268C80.4471 34.7629 79.8801 35.134 79.1872 35.2577C78.5572 35.3814 77.9272 35.3196 77.2972 35.0103C76.7303 34.701 76.2893 34.1443 75.9743 33.2783C75.6593 32.3505 75.5333 31.4227 75.5963 30.433C75.6593 29.4433 75.7223 28.5155 75.7223 27.6495C75.7223 25.9175 75.7223 24.1237 75.7223 22.3917C75.7223 20.6598 75.6593 18.866 75.4703 17.134C75.4073 17.0722 75.4073 17.0103 75.3443 16.9484C75.2813 16.8866 75.2183 16.8247 75.1554 16.701C74.3994 16.5155 73.5804 16.5773 72.6985 16.8247C71.8165 17.134 71.1235 17.5051 70.4936 17.9381C69.9896 18.3711 69.4226 18.9278 68.9187 19.6701C68.4147 20.4124 68.1627 21.0928 68.1627 21.7732V28.5155C68.1627 29.0103 68.1627 29.6289 68.2257 30.2474C68.2887 30.866 68.2257 31.4845 68.1627 32.0412C68.0997 32.5979 67.9107 33.1546 67.5957 33.6495C67.2807 34.1443 66.8398 34.5155 66.1468 34.701C65.7688 34.8247 65.4538 34.8866 65.1388 34.8247C64.8239 34.7629 64.5089 34.701 64.1309 34.5773C63.5639 34.3917 63.1229 34.0206 62.8079 33.5876C62.556 33.0928 62.367 32.5979 62.241 32.0412C62.115 31.4845 62.115 30.9897 62.115 30.4948C62.115 30 62.115 29.567 62.115 29.3196C62.115 28.5773 62.115 27.4639 62.115 26.0412C62.115 24.6185 62.115 23.134 62.115 21.5876C62.115 20.0412 62.115 18.5567 62.115 17.134C62.115 15.7113 62.115 14.6598 62.115 13.8557C62.115 13.1134 62.304 12.5567 62.745 12.0618C63.1859 11.567 63.6899 11.2577 64.2569 11.134C64.8239 11.0103 65.4538 11.0103 66.0838 11.2577C66.7138 11.4433 67.2807 11.8763 67.7217 12.5567C69.0446 11.6907 70.4936 11.134 72.1315 10.8247C73.7064 10.5155 75.2183 10.5773 76.6673 10.9484C78.0532 11.3196 79.2502 12.0618 80.1951 13.1752C81.1401 14.2268 81.644 15.7113 81.644 17.6289C81.644 17.6907 81.644 17.8763 81.707 18.1856C81.896 18.7423 81.896 19.1752 81.896 19.7938V32.2886Z" fill="#484A4C"/>
<path d="M88.0697 17.2577C87.3768 17.0722 86.8098 16.8247 86.3688 16.4536C85.8648 16.0825 85.5498 15.5876 85.3609 15.0928C85.1719 14.5979 85.1719 14.0412 85.3609 13.4845C85.5498 12.9278 85.9278 12.433 86.5578 11.9381C87.0618 11.567 87.6917 11.3814 88.3217 11.3814C89.0147 11.3814 89.6446 11.3814 90.2746 11.3814C90.2746 11.134 90.2746 10.6392 90.2116 9.89691C90.1486 9.15465 90.1486 8.28867 90.2116 7.36083C90.2116 6.433 90.2746 5.56702 90.4006 4.76289C90.5266 3.95877 90.6526 3.34021 90.9676 3.03093C91.6605 2.1031 92.4795 1.67011 93.4245 1.73196C94.4324 1.79382 95.1884 2.22681 95.8183 3.15465C95.9443 3.34021 96.0703 3.52578 96.1963 3.71135C96.3223 3.95877 96.3853 4.14434 96.3853 4.3299C96.4483 5.50516 96.4483 6.68042 96.3853 7.85568C96.3853 9.03093 96.3853 10.2062 96.3853 11.3814H100.291C100.858 11.3814 101.425 11.567 101.866 11.9381C102.307 12.3093 102.622 12.8041 102.811 13.299C103 13.7938 103.063 14.3505 102.937 14.9072C102.874 15.4639 102.622 15.8969 102.181 16.268C101.425 16.8866 100.543 17.1959 99.5352 17.2577C98.5272 17.3196 97.4563 17.3196 96.4483 17.3196C96.4483 19.1134 96.4483 20.9072 96.4483 22.701C96.4483 24.4949 96.4483 26.2887 96.4483 28.0825C96.4483 28.8866 96.5113 29.6907 96.5743 30.4948C96.6373 31.299 96.5743 32.1031 96.3853 32.8454C96.1963 33.4021 95.9443 33.8969 95.5664 34.268C95.1884 34.6392 94.7474 34.8247 94.2434 34.8866C93.7394 34.9485 93.2355 34.9485 92.6685 34.7629C92.1645 34.6392 91.6605 34.3299 91.1566 33.9588C90.9046 33.7113 90.7786 33.3402 90.6526 32.7835C90.5266 32.2268 90.4636 31.6701 90.4006 31.0516C90.3376 30.3093 90.3376 29.567 90.4006 28.7629C90.4006 28.0825 90.4006 27.2784 90.4006 26.2268C90.4006 25.1753 90.4006 24.1237 90.4006 22.9485C90.4006 21.8351 90.4006 20.7835 90.4006 19.732C90.4006 18.7423 90.4006 17.9381 90.4006 17.3196L88.0697 17.2577Z" fill="#484A4C"/>
<path d="M52.0355 4.45361C52.1615 3.27835 52.6024 2.41237 53.2954 1.85567C53.9884 1.29897 54.7443 1.05154 55.5003 1.05154C56.2563 1.05154 57.0122 1.36082 57.6422 1.91752C58.3352 2.47422 58.7132 3.27835 58.7132 4.32989C58.7761 5.38144 58.5242 6.24742 57.8312 6.80412C57.2012 7.42268 56.4453 7.73196 55.6893 7.79381C54.8703 7.85567 54.1144 7.6701 53.4214 7.17526C52.7284 6.68041 52.2875 5.87629 52.0985 4.76288L52.0355 4.45361Z" stroke="#484A4C" stroke-width="1.4126" stroke-miterlimit="10"/>
<path d="M46.8697 4.45361C47.0587 2.90722 47.5627 1.79381 48.5076 1.05155C49.3896 0.309278 50.3975 0 51.4055 0C52.4134 0 53.3584 0.43299 54.2404 1.17526C55.1223 1.91753 55.5633 2.96907 55.6263 4.3299C55.6893 5.75258 55.3113 6.80412 54.4923 7.60825C53.6734 8.35052 52.7284 8.7835 51.6575 8.90722C50.5865 9.03093 49.5786 8.72165 48.6966 8.04124C47.7517 7.36082 47.1847 6.30928 46.9957 4.8866L46.8697 4.45361Z" fill="#484A4C"/>
</g>
<defs>
<clipPath id="clip0_239_820">
<rect width="103" height="36" fill="white"/>
</clipPath>
</defs>
</svg>
