<svg width="67" height="95" viewBox="0 0 67 95" fill="none" xmlns="http://www.w3.org/2000/svg">
<g clip-path="url(#clip0_167_207)">
<path fill-rule="evenodd" clip-rule="evenodd" d="M48.0562 10.4912C49.2768 10.6843 50.369 10.813 51.4612 11.0705C52.6176 11.3923 53.5813 12.1003 53.9668 13.3232C54.545 14.9323 54.0953 16.477 52.6819 17.4424C52.2322 17.7642 51.7824 17.9573 51.14 18.3435C51.5897 18.6653 51.7824 19.0515 52.1037 19.0515C53.6456 19.1802 54.4808 20.21 55.1875 21.3686C56.2154 22.9777 55.9584 24.3293 54.6735 25.8096C54.4808 26.0027 54.288 26.2602 54.0311 26.6464C54.4165 26.9682 54.6735 27.3543 55.059 27.5474C56.0227 27.998 56.7936 28.6416 57.3076 29.5427C58.0143 30.7012 57.8858 31.9885 57.0506 33.0183C56.6652 33.4688 56.2154 33.7263 55.6372 33.6619C54.1596 33.4688 52.6819 33.5332 51.3327 34.3699C50.7545 34.6917 50.112 34.4987 49.5981 34.0481C48.7629 33.3401 48.1847 32.3747 48.0562 31.2805C47.9919 30.6369 47.9277 30.0576 47.8634 29.2852C47.4137 29.4783 47.0925 29.6071 46.707 29.7358C45.8075 30.0576 45.2293 29.8645 44.7154 29.0278C44.3299 28.3842 44.2014 27.7405 44.3299 27.0325C44.3941 26.7107 44.5869 26.4533 44.5869 26.1314C44.5869 25.874 44.4584 25.4878 44.2656 25.3591C44.0729 25.2304 43.6874 25.2947 43.4304 25.4234C43.1735 25.5522 42.9165 25.8096 42.6595 25.9384C41.6315 26.5176 40.6678 27.1613 39.6399 27.6762C38.5477 28.1911 37.841 27.998 37.327 26.9682C37.0058 26.3889 36.8773 25.6809 36.6846 24.9729C36.5561 24.5867 36.5561 24.2005 36.4276 23.8787C36.2991 23.5569 35.7209 23.3638 35.4639 23.6213C35.2069 23.8787 34.9499 24.2005 34.693 24.458C33.7935 25.2304 32.9583 26.0671 31.9946 26.6464C30.003 27.8692 28.4611 27.4187 27.1761 25.4878C26.9192 25.1016 26.7264 24.7155 26.4052 24.3293C26.2125 24.0718 25.5057 24.2006 25.4415 24.5867C25.3772 24.9085 25.3773 25.2304 25.313 25.4878C24.8633 28.3198 23.1929 29.9289 20.366 30.2507C19.1454 30.3794 17.8604 30.5081 16.6398 30.5725C14.9051 30.7012 13.299 31.1518 12.3995 32.7608C10.7934 32.6965 10.6649 31.4736 10.3436 30.3794C9.57268 30.2507 8.80173 30.7656 8.15927 30.1863C7.6453 29.7358 7.00283 29.3496 6.6816 28.7703C6.36037 28.1267 6.16763 27.29 6.16763 26.5176C6.16763 25.6165 6.36037 24.6511 6.6816 23.8144C7.25982 22.2053 7.83803 21.6904 10.1509 20.5962C9.82967 19.8882 9.50844 19.1802 9.12296 18.5366C8.73748 17.7642 8.80173 16.9919 9.1872 16.2839C9.63693 15.5759 10.1509 14.8679 10.7291 14.2243C11.6928 13.1945 12.8492 12.6152 14.2627 13.3875C14.4554 13.5163 14.7124 13.5806 14.9051 13.5163C15.0979 13.5163 15.4191 13.3875 15.4833 13.2588C15.6118 13.1301 15.6118 12.7439 15.4833 12.6152C13.8129 10.6843 14.7124 9.01085 15.9331 7.33741C16.1258 7.07995 16.3185 6.8225 16.5755 6.62941C18.4387 4.76288 20.4303 4.50543 22.6789 5.98578C23.1286 6.24323 23.5784 6.50068 24.0923 6.75814C24.1566 6.75814 24.2208 6.75814 24.4778 6.75814C24.542 6.43632 24.6063 6.05014 24.6705 5.72833C24.9918 3.92616 26.2125 2.89635 27.8829 2.38144C29.1678 1.99526 30.1957 2.57453 30.6454 3.8618C30.7739 4.24797 30.8382 4.63415 30.9667 4.95597C31.0952 5.34215 31.6734 5.40651 31.9304 5.14906C32.0589 5.02033 32.1231 4.89161 32.1873 4.76288C33.3438 2.6389 35.3997 1.9309 37.584 1.416C38.9332 1.09418 40.2181 1.48036 41.3746 2.18835C42.8522 3.08944 43.4947 4.44106 43.3019 6.17887C43.2377 6.50068 43.1092 6.75814 43.1092 7.07995C43.045 7.72358 43.5589 8.23849 44.0729 7.98104C44.8439 7.53049 45.5506 7.20868 46.45 7.72358C47.3495 8.30285 47.9919 9.01085 48.1204 10.105C47.8634 10.1694 47.9919 10.2981 48.0562 10.4912Z" fill="white"/>
<path fill-rule="evenodd" clip-rule="evenodd" d="M48.7629 37.395C49.2768 37.2663 49.6623 37.0732 50.3048 36.9445C50.4333 37.4594 50.5618 37.7812 50.5618 38.103C50.5618 41.8361 50.1763 45.5691 49.4696 49.3022C48.8914 52.2629 47.4779 54.9018 45.7433 57.2832C44.8439 58.5061 43.6874 59.4716 42.3383 60.1152C40.5394 60.9519 38.7405 61.6599 36.9416 62.3679C34.7572 63.1403 32.5086 63.2046 30.26 62.8184C27.6259 62.3679 25.056 61.7886 22.6147 60.6945C18.3102 58.8279 15.4833 55.7385 14.3269 51.1687C13.6844 48.5942 13.3632 45.9553 13.299 43.059C13.7487 43.252 14.0699 43.3164 14.3912 43.5095C15.5476 44.2175 16.8968 44.4106 18.2459 44.3462C19.5951 44.3462 20.88 44.2819 22.2292 44.1531C23.0001 44.0888 23.7711 43.96 24.5421 43.7026C26.7264 42.8659 28.3326 41.5786 28.3326 38.9397C28.3326 38.7466 28.4611 38.5535 28.7181 37.9099C28.7181 39.1328 28.7181 39.8408 28.7181 40.6132C28.7181 42.2866 28.0113 43.3808 26.4694 44.0888C24.3493 45.1186 24.2208 45.6978 25.3773 47.6931C26.8549 50.1389 28.6538 51.04 31.2237 50.5251C31.6091 50.4607 31.9946 50.332 31.9946 49.6884C31.4164 49.1735 30.6454 49.1091 29.9387 48.9804C28.2041 48.7873 27.1761 47.6931 26.5337 46.084C26.9834 45.8266 27.3689 45.5691 27.7544 45.376C29.4248 44.668 30.26 43.3164 30.3885 41.5142C30.4527 40.5488 30.5169 39.6477 30.6454 38.6823C30.7097 38.2961 30.7739 37.9099 30.8382 37.5881C32.7656 37.5237 33.0226 37.7168 33.3438 39.2615C33.4723 39.9695 33.665 40.6132 33.7935 41.3211C34.1147 42.9946 35.2069 43.8313 36.7488 44.2819C37.4555 44.4749 38.098 44.6037 38.8047 44.6037C41.2461 44.7324 43.6232 44.4749 46.0003 43.96C47.6707 43.5739 48.5701 42.4797 48.7629 40.8706C48.7629 39.7764 48.6986 38.6179 48.7629 37.395ZM38.8047 51.9411C38.5477 51.9411 38.355 51.8767 38.2265 51.9411C37.841 52.1985 37.4555 52.3916 37.0701 52.7134C36.0421 53.5501 34.8857 54.1938 33.6008 54.6443C31.2237 55.4167 28.975 55.2236 26.9834 53.7432C26.5337 53.4214 26.084 53.164 25.57 52.9065C25.4415 52.8422 25.1203 53.0352 24.9918 53.164C24.9275 53.2283 24.8633 53.4858 24.8633 53.6145C24.9275 53.8076 24.9918 54.0651 25.1845 54.2581C26.0197 55.288 27.1119 56.1247 28.3968 56.5752C31.8661 57.7338 35.0142 56.8327 37.7768 54.6443C38.2265 54.2581 38.5477 53.6789 38.869 53.164C38.9974 52.7134 38.869 52.3272 38.8047 51.9411Z" fill="white"/>
<path fill-rule="evenodd" clip-rule="evenodd" d="M40.6678 85.0237C40.7963 84.9593 40.9248 84.8306 41.0533 84.8306C45.6148 85.0237 50.2405 85.2811 54.802 85.5386C54.9305 85.5386 55.059 85.6673 55.1875 85.7316C55.7015 88.1131 55.7657 90.4302 55.3802 92.7472C54.6735 93.1978 53.7741 93.1978 52.9389 93.1978C49.2768 93.1978 45.6148 93.1978 41.9528 93.1334C41.6958 93.1334 41.503 93.1334 41.2461 93.0691C40.7321 93.0047 40.3466 92.6829 40.2824 92.168C40.2181 91.46 40.1539 90.752 40.2181 90.044C40.2824 88.4993 40.3466 86.9546 40.4109 85.3455C40.4751 85.2811 40.5394 85.1524 40.6678 85.0237Z" fill="white"/>
<path fill-rule="evenodd" clip-rule="evenodd" d="M40.6036 42.2866C37.327 42.3509 36.6846 41.9004 35.9779 39.2615C35.7209 38.2317 35.5924 37.1375 35.5924 36.0433C35.5282 34.1124 36.4918 32.9539 38.4192 32.6965C40.3466 32.439 42.274 32.6965 44.2014 33.2114C44.6511 33.3401 45.1008 33.7906 45.3578 34.2412C45.6791 34.7561 45.8075 35.3997 45.936 35.979C46.0645 36.9444 46.193 37.9742 46.2573 39.004C46.3858 40.5488 45.6791 41.4498 44.1371 41.836C43.8159 41.9004 43.4947 41.9647 43.2377 41.9647C42.1455 42.1578 41.1176 42.2222 40.6036 42.2866ZM41.2461 37.9099C40.9891 37.2662 40.8606 36.5582 40.5394 35.9146C40.2824 35.3997 39.5114 35.3353 39.1259 35.7859C38.2907 36.7513 38.1622 38.6179 38.9332 39.712C39.3187 40.2269 40.2181 40.2269 40.5394 39.712C40.8606 39.1328 40.9891 38.5535 41.2461 37.9099Z" fill="white"/>
<path fill-rule="evenodd" clip-rule="evenodd" d="M24.8633 40.8063C22.1649 41.7073 19.4666 41.9648 16.7683 41.3212C16.0616 41.1281 15.5476 40.6775 15.3548 39.9695C14.8409 38.4892 14.5839 36.9445 14.9694 35.3997C15.2906 34.1768 15.9973 33.4045 17.3465 33.0827C19.5308 32.5678 21.651 32.3747 23.7711 33.2114C24.8633 33.6619 25.3773 34.3056 25.3773 35.4641C25.3773 37.2019 25.3773 38.8754 24.8633 40.8063ZM19.0169 37.9743C19.0811 38.4248 19.2096 38.9397 19.3381 39.4546C19.5308 39.9052 19.8521 40.1626 20.3661 40.1626C20.88 40.1626 21.2655 39.9052 21.4582 39.4546C21.908 38.6179 21.908 37.7168 21.651 36.7514C21.4582 36.1077 21.137 35.7859 20.5588 35.7859C19.9163 35.7216 19.3381 36.1077 19.1454 36.7514C19.0811 37.1376 19.0811 37.5237 19.0169 37.9743Z" fill="white"/>
<path fill-rule="evenodd" clip-rule="evenodd" d="M38.7405 75.1118C37.327 74.2107 34.7572 71.5074 33.6008 69.7053C36.7488 68.2893 39.9611 66.8733 43.1734 65.3929C44.2014 65.7791 45.0366 66.4871 46.0003 67.2595C43.8802 70.3489 41.1176 72.6016 38.7405 75.1118Z" fill="white"/>
<path fill-rule="evenodd" clip-rule="evenodd" d="M28.3968 35.0779C28.3326 34.4343 28.2683 33.9837 28.2683 33.5332C28.2041 32.1816 27.6259 31.3448 26.3409 30.9587C25.7627 30.7656 25.1845 30.5081 24.4778 30.1863C25.1203 29.2852 25.6342 28.4485 26.1482 27.7405C26.7907 27.5474 27.1119 27.998 27.4974 28.1911C29.0393 29.0278 30.6454 29.0278 32.1873 28.1911C33.151 27.6761 33.9862 27.0969 35.0142 26.4532C35.3997 27.0325 35.7209 27.6118 36.0421 28.0623C37.0701 29.414 38.355 29.8001 39.9611 29.0921C40.7321 28.7703 41.4388 28.3198 42.3382 27.8049C42.5952 28.4485 42.788 28.9634 42.9807 29.607C41.8885 29.9932 40.8606 29.8645 39.8969 29.8001C38.4835 29.7358 37.1343 29.9932 35.8494 30.6369C34.3075 31.4092 33.151 32.439 32.8941 34.3056C32.8941 34.563 32.7656 34.7561 32.7013 34.9492C32.7013 35.0135 32.5728 35.0779 32.4443 35.2066C32.0589 35.1423 31.6091 35.0779 31.0309 34.9492C30.9667 34.4986 30.9024 34.0481 30.7739 33.6619C30.7097 33.2757 30.4527 32.8896 30.003 33.0183C29.746 33.0827 29.5532 33.4045 29.4248 33.6619C29.2963 33.9837 29.3605 34.4343 29.1678 34.7561C29.1678 34.9492 28.7823 34.9492 28.3968 35.0779Z" fill="white"/>
<path fill-rule="evenodd" clip-rule="evenodd" d="M22.7432 65.393C23.0644 64.4919 23.2571 63.9126 23.4499 63.3334C23.7068 63.3334 23.9638 63.2046 24.1566 63.269C26.2125 63.9126 28.3968 64.3632 30.5169 64.685C33.2795 65.0712 35.9136 64.685 38.5477 63.7195C39.2544 63.4621 40.0254 63.2046 40.8606 62.8828C41.1818 63.269 41.5673 63.6552 41.8885 63.977C41.76 64.2344 41.76 64.4275 41.6958 64.4275C38.8047 65.7148 36.0421 67.3882 32.9583 68.3537C31.8019 68.7399 30.7097 68.7399 29.5533 68.3537C27.2404 67.5813 25.1203 66.4871 22.7432 65.393Z" fill="white"/>
<path fill-rule="evenodd" clip-rule="evenodd" d="M29.5533 69.8983C29.489 70.0914 29.489 70.2201 29.4248 70.3488C28.1398 72.0223 26.8549 73.6314 25.5057 75.3692C24.4778 74.8543 24.0923 73.8888 23.5141 73.1165C22.9359 72.2797 22.2934 71.443 21.7795 70.6063C21.2655 69.7696 20.7515 68.8685 20.2376 67.8387C20.8158 67.3238 21.2655 66.8732 21.7795 66.4871C24.4136 67.6456 26.9834 68.7398 29.5533 69.8983Z" fill="white"/>
<path fill-rule="evenodd" clip-rule="evenodd" d="M40.5394 82.9641C40.3466 82.1917 40.3466 81.4194 40.9248 80.7114C41.3103 80.647 41.76 80.5826 42.2098 80.5826C46.3215 80.7757 50.4333 80.9688 54.545 81.1619C55.1232 81.9343 55.2517 82.7066 55.1875 83.5433C52.7461 84.1226 43.2377 83.7364 40.5394 82.9641Z" fill="white"/>
<path fill-rule="evenodd" clip-rule="evenodd" d="M54.3523 37.3306C53.6456 37.5237 53.0674 37.6524 52.4249 37.8455C52.1037 36.88 52.4249 36.172 52.8746 35.5284C53.1316 35.2066 53.6456 35.0135 54.0311 34.8848C54.4808 34.6917 54.9305 34.8848 55.316 35.2066C55.8942 35.7859 56.2154 36.4295 56.2797 37.2662C56.3439 40.42 54.9305 42.8014 52.5534 44.6036C51.9109 44.4105 51.9752 44.0243 51.9752 43.6382C51.9752 43.1233 52.1037 42.544 52.0394 42.0291C52.0394 41.128 52.2964 40.3556 53.0031 39.712C53.4528 39.2615 53.8383 38.8109 54.2238 38.296C54.4165 38.1029 54.288 37.7811 54.3523 37.3306Z" fill="white"/>
<path fill-rule="evenodd" clip-rule="evenodd" d="M10.0867 36.8801C10.0224 37.2019 9.89391 37.4594 9.95816 37.6525C10.0224 37.9099 10.2151 38.2317 10.4079 38.4248C12.0783 40.227 11.8213 42.351 11.5643 44.6037C11.2431 44.475 10.9861 44.475 10.8576 44.3462C9.44419 42.7371 8.60899 40.8063 8.28776 38.6823C8.22351 38.1674 8.22351 37.5881 8.22351 37.0732C8.15926 35.3354 10.0224 34.2412 11.4358 34.6918C11.5643 34.7561 11.6928 34.8848 11.8855 35.0779C11.8213 35.3354 11.8213 35.7216 11.7571 36.1077C11.6928 36.4939 11.6928 36.8801 11.6286 37.2663C11.1146 37.1376 10.6649 37.0732 10.0867 36.8801Z" fill="white"/>
<path fill-rule="evenodd" clip-rule="evenodd" d="M30.9667 85.2168C30.0672 85.1524 29.4248 84.5732 29.4248 83.8008C29.4248 82.8997 30.0672 82.2561 30.8382 82.2561C31.8661 82.2561 32.7656 83.0928 32.6371 83.9295C32.5086 84.7019 31.8019 85.2812 30.9667 85.2168Z" fill="white"/>
<path fill-rule="evenodd" clip-rule="evenodd" d="M31.4164 78.0081C30.6454 77.9438 30.003 77.2358 30.0672 76.4634C30.0672 75.6267 30.9667 74.9187 31.8019 75.0474C32.5728 75.1761 33.151 75.8841 33.0226 76.7209C32.8298 77.4932 32.1231 78.0725 31.4164 78.0081Z" fill="white"/>
<path fill-rule="evenodd" clip-rule="evenodd" d="M51.7182 46.8563C50.7545 53.1639 48.4416 58.6348 42.5952 62.1748C42.9165 62.6253 43.1734 63.0115 43.4304 63.3333C45.2936 65.3286 47.6707 66.4871 50.2405 67.2595C51.4612 67.6456 52.6176 67.9031 53.8383 68.2893C57.5004 69.3191 60.1987 71.5074 62.0618 74.7899C64.3747 78.7161 65.6596 82.8997 66.0451 87.4051C66.1736 88.7568 66.2378 90.044 66.2378 91.3956C66.2378 91.9105 66.2378 92.4898 66.1093 93.0047C65.9166 94.0989 65.5311 94.4207 64.3747 94.4851C63.6037 94.5494 62.8328 94.4851 62.0618 94.4851C46.8997 94.5494 31.8019 94.6138 16.6398 94.6782C12.528 94.6782 8.35201 94.8713 4.24025 95C3.53354 95 2.82683 95.0643 2.12012 95.0643C0.385476 95 -0.128494 94.5494 -0.0642477 92.8116C0.128491 87.4695 1.02794 82.2561 3.40505 77.3645C4.94696 74.1463 7.25982 71.6362 10.4721 70.1558C12.3995 69.2547 14.3911 68.5467 16.2543 67.71C17.475 67.1951 18.6956 66.6158 19.7878 65.9078C21.137 65.0711 21.4582 64.4918 22.1649 62.754C19.1454 61.2737 16.3828 59.4072 14.5196 56.4465C12.7207 53.5501 12.2068 50.332 11.8213 46.9851C9.95816 46.4702 8.93022 45.0542 8.09502 43.4451C7.06708 41.4498 6.36037 39.4546 6.55311 37.1375C6.6816 35.7215 7.19557 34.563 8.4805 33.855C8.73748 33.7263 8.99447 33.5332 9.3157 33.2757C9.12296 32.8252 8.93022 32.3746 8.73748 31.9241C8.4805 31.8597 8.22351 31.731 7.90228 31.6666C5.46093 30.8943 4.176 29.1565 4.30449 26.582C4.36874 24.3936 5.07545 22.4627 6.6816 20.918C6.93859 20.6605 7.25982 20.4031 7.5168 20.1456C6.93859 18.4078 6.8101 16.7344 7.83804 15.1253C8.99447 13.3875 10.2794 11.9072 12.4638 11.4566C12.528 11.4566 12.5923 11.3923 12.7207 11.3923C12.785 11.1992 12.9135 11.0061 12.9135 10.7486C12.9777 8.56028 14.1342 6.88683 15.6118 5.47085C17.475 3.73304 19.5308 3.34686 21.8437 4.37667C22.2292 4.5054 22.5504 4.69849 23.0001 4.95594C23.3214 4.44103 23.6426 3.92613 24.0281 3.41122C24.799 2.38141 25.7627 1.60906 26.9834 1.28724C28.9108 0.707973 30.4527 0.965425 31.5449 2.5745C32.1873 2.18832 32.7013 1.86651 33.2153 1.54469C34.8214 0.64361 36.4276 0.0643415 38.2907 -2.16531e-05C41.1176 -0.128748 44.2656 1.93087 44.6511 4.76285C44.6511 4.95594 44.7796 5.21339 44.8439 5.34212C45.8075 5.85702 46.8355 6.17884 47.5422 6.75811C48.2489 7.40174 48.7629 8.36719 49.4696 9.397C49.8551 9.46136 50.5618 9.46136 51.2685 9.59009C54.288 10.105 56.2154 12.6152 55.7015 15.4471C55.573 16.3482 55.059 17.1849 54.6735 18.2791C54.802 18.4722 54.9948 18.794 55.2517 19.0515C57.3076 21.1755 57.9501 23.5569 56.5367 26.3889C56.9221 26.775 57.2434 27.1612 57.6288 27.5474C59.6847 29.5427 59.8132 32.5677 57.8216 34.4343C57.6288 34.563 57.5004 34.7561 57.2434 35.0779C58.0143 37.395 57.8858 39.7764 56.7294 42.0291C55.7015 44.2175 54.2238 46.0196 51.7182 46.8563ZM48.0562 10.4912C47.9919 10.2981 47.8634 10.1694 47.8634 10.0406C47.7992 8.88209 47.1567 8.23846 46.193 7.65919C45.2936 7.07992 44.5869 7.4661 43.8159 7.91664C43.3019 8.23846 42.7237 7.65919 42.8522 7.01556C42.9165 6.69374 43.045 6.43629 43.045 6.11448C43.2377 4.37667 42.5952 3.08941 41.1176 2.12396C39.9611 1.3516 38.6762 1.02979 37.327 1.3516C35.2069 1.86651 33.0868 2.5745 31.9304 4.69849C31.8661 4.82721 31.7376 4.95594 31.6734 5.08467C31.4164 5.40648 30.8382 5.27776 30.7097 4.89158C30.5812 4.5054 30.5169 4.11922 30.3885 3.7974C29.9387 2.51014 28.975 1.93087 27.6259 2.31705C25.9555 2.83196 24.7348 3.7974 24.4136 5.66393C24.3493 6.05011 24.2851 6.37193 24.2208 6.69374C24.0281 6.69374 23.8996 6.75811 23.8353 6.69374C23.3856 6.43629 22.8716 6.17884 22.4219 5.92139C20.1733 4.5054 18.1817 4.69849 16.3185 6.56502C16.1258 6.75811 15.8688 7.01556 15.6761 7.27301C14.5196 8.94646 13.6202 10.6199 15.2264 12.5508C15.3548 12.6795 15.2906 13.0657 15.2264 13.1944C15.0979 13.3231 14.8409 13.4519 14.6481 13.4519C14.4554 13.4519 14.1984 13.3875 14.0057 13.3231C12.5923 12.5508 11.4358 13.1301 10.4721 14.1599C9.89391 14.8035 9.37994 15.5115 8.93022 16.2195C8.4805 16.9275 8.4805 17.6998 8.86598 18.4722C9.18721 19.1802 9.50844 19.8882 9.89391 20.5318C7.6453 21.6904 7.00284 22.1409 6.42462 23.75C6.10339 24.5867 5.91065 25.5521 5.91065 26.4532C5.91065 27.2256 6.10339 28.0623 6.42462 28.7059C6.74585 29.2852 7.38831 29.6714 7.90228 30.1219C8.54474 30.7012 9.37994 30.1863 10.0867 30.315C10.4079 31.4092 10.5364 32.6321 12.1425 32.6965C13.042 31.1517 14.6481 30.6368 16.3828 30.5081C17.6035 30.3794 18.8884 30.315 20.1091 30.1863C22.8716 29.8645 24.6063 28.191 25.056 25.4234C25.1203 25.1016 25.1203 24.7798 25.1845 24.5223C25.2488 24.2005 25.9555 24.0074 26.1482 24.2649C26.4052 24.6511 26.6622 25.0372 26.9192 25.4234C28.2041 27.3543 29.746 27.7405 31.7376 26.582C32.7013 26.0027 33.6008 25.166 34.436 24.3936C34.7572 24.1362 34.9499 23.8143 35.2069 23.5569C35.4639 23.2994 36.1064 23.4282 36.1706 23.8143C36.2991 24.2005 36.2991 24.5867 36.4276 24.9085C36.6203 25.5521 36.7488 26.2601 37.0701 26.9038C37.6483 27.9979 38.355 28.191 39.3829 27.6118C40.4109 27.0969 41.4388 26.4532 42.4025 25.874C42.6595 25.7452 42.9165 25.4878 43.1734 25.3591C43.4304 25.2303 43.8159 25.166 44.0087 25.2947C44.2014 25.4234 44.3299 25.8096 44.3299 26.0671C44.3299 26.3889 44.1371 26.6463 44.0729 26.9681C43.9444 27.6761 44.0729 28.3841 44.4584 28.9634C44.9723 29.7357 45.4863 29.9932 46.45 29.6714C46.7712 29.5427 47.0925 29.4139 47.6064 29.2208C47.6707 29.9932 47.7349 30.6368 47.7992 31.2161C47.9277 32.3746 48.5059 33.2757 49.3411 33.9837C49.8551 34.4343 50.4975 34.6273 51.0757 34.3055C52.4249 33.4688 53.8383 33.4044 55.3802 33.5975C55.9584 33.6619 56.4082 33.4044 56.7936 32.9539C57.6931 31.9241 57.7573 30.6368 57.0506 29.4783C56.4724 28.5772 55.7015 27.9979 54.802 27.483C54.4165 27.29 54.1595 26.9038 53.7741 26.582C54.0311 26.1958 54.2238 25.9383 54.4165 25.7452C55.7657 24.2649 55.9584 22.9776 54.9305 21.3042C54.2238 20.1456 53.3886 19.1158 51.8467 18.9871C51.5897 18.9871 51.3327 18.6009 50.883 18.2791C51.5255 17.8929 52.0394 17.6355 52.4249 17.378C53.8383 16.4126 54.288 14.8679 53.7098 13.2588C53.2601 12.0359 52.3607 11.3279 51.2042 11.0061C50.369 10.813 49.2768 10.6843 48.0562 10.4912ZM48.7629 37.395C48.6986 38.6179 48.7629 39.7764 48.5701 40.9349C48.3774 42.544 47.5422 43.6382 45.8075 44.0244C43.4304 44.5393 41.0533 44.7967 38.612 44.668C37.9053 44.6036 37.1986 44.4749 36.5561 44.3462C35.0142 43.96 33.922 43.0589 33.6008 41.3855C33.4723 40.6775 33.2795 40.0339 33.151 39.3259C32.8298 37.7811 32.5728 37.5881 30.6454 37.6524C30.5812 37.9742 30.5169 38.3604 30.4527 38.7466C30.3885 39.712 30.26 40.6131 30.1957 41.5786C30.0672 43.3807 29.232 44.668 27.5616 45.4404C27.1761 45.6334 26.7907 45.8909 26.3409 46.1483C27.0477 47.8218 28.0113 48.8516 29.746 49.0447C30.5169 49.1091 31.2879 49.2378 31.8019 49.7527C31.8019 50.3963 31.4164 50.525 31.0309 50.5894C28.4611 51.0399 26.6622 50.2032 25.1845 47.7574C24.0281 45.8265 24.1566 45.1829 26.2767 44.1531C27.8186 43.4451 28.5253 42.3509 28.5253 40.6775C28.5253 39.9051 28.5253 39.1328 28.5253 37.9742C28.2683 38.6179 28.1398 38.811 28.1398 39.004C28.2041 41.6429 26.5979 42.9302 24.3493 43.7669C23.6426 44.0244 22.8074 44.1531 22.0364 44.2175C20.6873 44.3462 19.4024 44.4105 18.0532 44.4105C16.704 44.4105 15.4191 44.2818 14.1984 43.5738C13.9414 43.3807 13.5559 43.3164 13.1062 43.1233C13.1705 46.0196 13.4917 48.6585 14.1342 51.233C15.2906 55.8028 18.1174 58.8923 22.4219 60.7588C24.8633 61.7886 27.4331 62.4322 30.0672 62.8828C32.3158 63.2689 34.5645 63.2046 36.7488 62.4322C38.5477 61.7886 40.3466 61.0162 42.1455 60.1795C43.4947 59.5359 44.6511 58.5704 45.5506 57.3475C47.3495 54.9017 48.7629 52.3272 49.2768 49.3665C49.9835 45.6978 50.369 41.9647 50.369 38.1673C50.369 37.8455 50.2405 37.4593 50.112 37.0088C49.6623 37.1375 49.2768 37.2662 48.7629 37.395ZM40.6678 85.0237C40.6036 85.1524 40.4751 85.2811 40.4751 85.4099C40.4109 86.9546 40.3466 88.4993 40.2824 90.1084C40.2824 90.8164 40.2824 91.5244 40.3466 92.2324C40.4109 92.7473 40.7321 93.0691 41.3103 93.1334C41.5673 93.1978 41.76 93.1978 42.017 93.1978C45.6791 93.1978 49.3411 93.2622 53.0031 93.2622C53.8383 93.2622 54.7378 93.2622 55.4445 92.8116C55.83 90.5589 55.7657 88.2418 55.2517 85.796C55.1232 85.7317 54.9948 85.603 54.8663 85.603C50.3048 85.3455 45.6791 85.1524 41.1176 84.895C40.9248 84.8306 40.7963 84.9593 40.6678 85.0237ZM40.6036 42.2866C41.1176 42.2222 42.1455 42.1578 43.1092 42.0935C43.4304 42.0935 43.7517 42.0291 44.0087 41.9647C45.5506 41.5786 46.2573 40.6775 46.1288 39.1328C46.0645 38.103 46.0003 37.1375 45.8075 36.1077C45.7433 35.5284 45.5506 34.8848 45.2293 34.3699C44.9723 33.9194 44.5226 33.4688 44.0729 33.3401C42.2098 32.8252 40.2824 32.5677 38.2907 32.8252C36.4276 33.0826 35.4639 34.1768 35.4639 36.1721C35.4639 37.2662 35.5924 38.3604 35.8494 39.3902C36.6846 41.9004 37.3913 42.3509 40.6036 42.2866ZM24.8633 40.8062C25.3773 38.8753 25.3773 37.2019 25.3773 35.4641C25.3773 34.3055 24.8633 33.5975 23.7711 33.2114C21.651 32.3746 19.5308 32.5677 17.3465 33.0826C16.0616 33.4044 15.3548 34.1768 14.9694 35.3997C14.5196 36.9444 14.8409 38.4891 15.3548 39.9695C15.6118 40.7418 16.0616 41.128 16.7683 41.3211C19.5308 41.9647 22.1649 41.7073 24.8633 40.8062ZM38.7405 75.1118C41.1176 72.5372 43.8802 70.2845 45.936 67.2595C44.9723 66.5515 44.1371 65.8435 43.1092 65.3929C39.8969 66.8089 36.7488 68.2249 33.5365 69.7053C34.8214 71.5718 37.327 74.275 38.7405 75.1118ZM28.3968 35.0779C28.7823 34.9492 29.1678 34.9492 29.2963 34.7561C29.489 34.4343 29.4248 33.9837 29.5533 33.6619C29.6175 33.4044 29.8745 33.0826 30.1315 33.0183C30.5812 32.8895 30.7739 33.2757 30.9024 33.6619C31.0309 34.1124 31.0952 34.563 31.1594 34.9492C31.7376 35.0779 32.1873 35.1423 32.5728 35.2066C32.7013 35.0779 32.7656 35.0135 32.8298 34.9492C32.8941 34.7561 32.9583 34.4986 33.0226 34.3055C33.2795 32.5034 34.436 31.4092 35.9779 30.6368C37.2628 29.9932 38.612 29.7357 40.0254 29.8001C40.9891 29.8645 42.017 30.0576 43.1092 29.607C42.9165 29.0278 42.6595 28.4485 42.4667 27.8049C41.5673 28.2554 40.8606 28.7059 40.0896 29.0921C38.5477 29.8001 37.1986 29.4139 36.1706 28.0623C35.7851 27.5474 35.5282 27.0325 35.1427 26.4532C34.179 27.0325 33.2795 27.6761 32.3158 28.191C30.7739 29.0278 29.232 29.0921 27.6259 28.191C27.2404 27.9979 26.9192 27.5474 26.2767 27.7405C25.7627 28.4485 25.2488 29.2852 24.6063 30.1863C25.313 30.5081 25.8912 30.7656 26.4694 30.9586C27.7544 31.3448 28.3968 32.2459 28.3968 33.5332C28.2683 33.9837 28.3326 34.4343 28.3968 35.0779ZM22.7432 65.3929C25.1203 66.4227 27.2404 67.5169 29.5533 68.2893C30.7097 68.6754 31.8019 68.6754 32.9583 68.2893C36.0421 67.3238 38.7405 65.6504 41.6958 64.3631C41.76 64.2988 41.8243 64.1057 41.8885 63.9126C41.5673 63.5908 41.2461 63.2046 40.8606 62.8184C40.0254 63.1402 39.2544 63.3977 38.5477 63.6551C35.9779 64.6849 33.3438 65.0711 30.5169 64.6206C28.3326 64.2988 26.2125 63.8482 24.1566 63.2046C23.9638 63.1402 23.7068 63.2046 23.4499 63.2689C23.2571 63.9126 23.0644 64.4918 22.7432 65.3929ZM29.5533 69.8983C26.9834 68.8042 24.4136 67.71 21.7152 66.4871C21.2655 66.8733 20.7515 67.3238 20.1733 67.8387C20.7515 68.8685 21.2012 69.7053 21.7152 70.6063C22.2292 71.4431 22.8074 72.2798 23.4499 73.1165C24.0281 73.8889 24.4778 74.8543 25.4415 75.3692C26.7907 73.6314 28.0756 72.0223 29.3605 70.3489C29.489 70.2202 29.489 70.0271 29.5533 69.8983ZM40.5394 82.9641C43.2377 83.7364 52.7461 84.1226 55.1875 83.5433C55.316 82.7066 55.1232 81.8699 54.545 81.1619C50.4333 80.9688 46.3215 80.7757 42.2098 80.5826C41.76 80.5826 41.3103 80.647 40.9248 80.7114C40.3466 81.4837 40.3466 82.1917 40.5394 82.9641ZM54.3523 37.3306C54.3523 37.7811 54.4165 38.103 54.288 38.296C53.9668 38.811 53.5171 39.2615 53.0674 39.712C52.3607 40.3557 52.1037 41.0637 52.1037 42.0291C52.1037 42.544 52.0394 43.1233 52.0394 43.6382C52.0394 44.0244 51.9109 44.4105 52.6176 44.6036C54.9948 42.8015 56.4082 40.42 56.3439 37.2662C56.3439 36.4295 55.9584 35.7859 55.3802 35.2066C54.9948 34.8204 54.6093 34.6917 54.0953 34.8848C53.6456 35.0779 53.1959 35.2066 52.9389 35.5284C52.4892 36.1721 52.1679 36.8801 52.4891 37.8455C53.0674 37.7168 53.5813 37.5237 54.3523 37.3306ZM10.0867 36.8801C10.6006 37.0088 11.1146 37.1375 11.6928 37.3306C11.7571 36.8801 11.7571 36.5582 11.8213 36.1721C11.8855 35.7859 11.8855 35.4641 11.9498 35.1423C11.6928 34.9492 11.6286 34.8204 11.5001 34.7561C10.0867 34.3055 8.22351 35.3997 8.28776 37.1375C8.28776 37.6524 8.28776 38.2317 8.35201 38.7466C8.67324 40.8706 9.57268 42.7371 10.9219 44.4105C11.0503 44.5393 11.3073 44.5393 11.6286 44.668C11.8855 42.4153 12.1425 40.2913 10.4721 38.4891C10.2794 38.296 10.0867 37.9742 10.0224 37.7168C9.95816 37.4593 10.0867 37.2662 10.0867 36.8801ZM30.9667 85.2168C31.8661 85.2811 32.5728 84.7019 32.6371 83.9295C32.7013 83.0284 31.8661 82.2561 30.8382 82.2561C30.0672 82.2561 29.489 82.9641 29.4248 83.8008C29.4248 84.5731 30.0672 85.2168 30.9667 85.2168ZM31.4164 78.0081C32.1873 78.0725 32.8941 77.4932 32.9583 76.6565C33.0868 75.8841 32.5086 75.1118 31.7376 74.983C30.9024 74.8543 30.0672 75.5623 30.003 76.399C30.003 77.2357 30.5812 77.9437 31.4164 78.0081Z" fill="#222B6C"/>
<path fill-rule="evenodd" clip-rule="evenodd" d="M38.8047 51.941C38.8047 52.3272 38.9332 52.7133 38.8047 53.0352C38.5477 53.6144 38.2265 54.1937 37.7125 54.5155C34.8857 56.7039 31.8019 57.6693 28.3326 56.4464C27.0477 55.9959 26.0197 55.2235 25.1203 54.1293C24.9918 53.9362 24.8633 53.7431 24.799 53.4857C24.7348 53.357 24.799 53.1639 24.9275 53.0352C25.1203 52.9064 25.3773 52.7133 25.5057 52.7777C26.0197 52.9708 26.4694 53.2926 26.9192 53.6144C28.975 55.1591 31.1594 55.3522 33.5365 54.5155C34.8214 54.065 35.9779 53.4857 37.0058 52.5846C37.327 52.2628 37.7768 52.0697 38.1623 51.8123C38.355 51.8766 38.5477 51.941 38.8047 51.941Z" fill="#222B6C"/>
<path fill-rule="evenodd" clip-rule="evenodd" d="M41.2461 37.9099C40.9891 38.5535 40.8606 39.1328 40.5394 39.6477C40.2181 40.227 39.3187 40.1626 38.9332 39.6477C38.1622 38.6179 38.2265 36.687 39.1259 35.7216C39.5114 35.3354 40.2824 35.3354 40.5394 35.8503C40.8606 36.5583 40.9891 37.2019 41.2461 37.9099Z" fill="#222B6C"/>
<path fill-rule="evenodd" clip-rule="evenodd" d="M19.0169 37.9742C19.0811 37.5237 19.0811 37.1375 19.2096 36.7513C19.4024 36.1077 19.9806 35.7859 20.623 35.7859C21.2012 35.8503 21.5225 36.1721 21.7152 36.7513C21.9722 37.6524 21.9722 38.5535 21.5225 39.4546C21.3297 39.9051 20.9443 40.1626 20.4303 40.1626C19.9163 40.1626 19.5308 39.9051 19.4024 39.4546C19.1454 38.9397 19.0811 38.4248 19.0169 37.9742Z" fill="#222B6C"/>
</g>
<defs>
<clipPath id="clip0_167_207">
<rect width="66.3021" height="95" fill="white"/>
</clipPath>
</defs>
</svg>
