<svg width="80" height="95" viewBox="0 0 80 95" fill="none" xmlns="http://www.w3.org/2000/svg">
<g clip-path="url(#clip0_168_264)">
<path fill-rule="evenodd" clip-rule="evenodd" d="M41.6134 93.8792C42.4485 93.8792 43.2835 93.8792 44.1186 93.8091C44.1881 93.8091 44.1881 93.8091 44.2577 93.8091C44.1186 93.3187 44.1881 92.8283 44.1881 92.3379C44.1186 87.8541 43.9794 83.3703 43.9098 78.8165C43.9098 78.186 43.9098 77.5554 43.8402 76.9249C43.7706 76.0141 43.4923 75.7339 42.518 75.8039C42.3093 75.8039 42.1005 75.9441 41.8918 76.0141C41.8918 79.0267 41.8918 82.0392 41.8918 85.0517C41.7526 88.1343 41.683 91.0768 41.6134 93.8792Z" fill="white"/>
<path fill-rule="evenodd" clip-rule="evenodd" d="M54.1392 87.5038C54.2088 89.4654 53.7912 92.4079 53.7912 94.2995C54.6263 94.2294 56.2268 94.3695 57.0619 94.2995C56.7835 91.0768 56.5052 86.8032 56.1572 83.7206C55.7397 80.2877 55.2526 76.7847 54.1392 73.562C53.4433 73.2818 53.0258 73.7021 52.4691 74.0524C52.6778 76.2243 53.3737 78.326 53.5825 80.5679C53.7912 82.8799 54 85.1918 54.1392 87.5038Z" fill="white"/>
<path fill-rule="evenodd" clip-rule="evenodd" d="M63.1856 81.6187C63.3247 83.7905 63.3247 85.9623 63.3247 88.1341C63.3247 89.6054 62.9768 92.758 62.9768 94.2993C63.7423 94.2293 65.6211 94.4395 66.3866 94.4395C66.317 91.9874 65.6211 87.5737 65.5515 85.1216C65.4124 80.6378 64.7861 76.1541 63.8814 71.7403C63.6031 70.2691 62.768 69.4284 61.3067 68.8679C61.7242 71.1799 62.2113 73.2816 62.4897 75.3834C62.768 77.4151 63.0464 79.5169 63.1856 81.6187Z" fill="white"/>
<path fill-rule="evenodd" clip-rule="evenodd" d="M32.2887 93.9491C32.1495 93.5288 32.2191 93.1785 32.2191 92.7581C32.0799 86.663 32.3582 80.6379 33.4717 74.6829C33.5412 74.4727 33.4717 74.2625 33.4717 73.8422C33.0541 73.632 32.6366 73.4218 32.0103 73.0715C30.8969 76.6445 30.6186 80.1475 30.201 83.7205C29.8531 87.0833 29.9923 90.5162 29.7139 93.9491C30.549 93.9491 31.384 93.9491 32.2887 93.9491Z" fill="white"/>
<path fill-rule="evenodd" clip-rule="evenodd" d="M23.1031 71.1799C22.8943 71.6003 22.7552 72.0206 22.616 72.511C20.9459 77.3451 20.25 82.3193 19.9716 87.3635C19.9021 89.115 19.8325 90.9366 19.8325 92.688C19.8325 93.0383 19.6237 94.4395 19.6237 94.4395C19.6237 94.4395 21.7113 94.4395 22.3376 94.3694C21.8505 92.8281 22.1985 91.2869 22.1985 89.8156C22.1985 88.2043 22.268 86.5228 22.4072 84.9115C22.5464 83.2301 22.7552 81.5487 23.0335 79.8672C23.3119 78.2559 23.6598 76.6445 24.0077 75.1032C24.3557 73.4919 24.8428 71.9506 25.2603 70.4093C24.0773 70.1991 23.451 70.4093 23.1031 71.1799Z" fill="white"/>
<path fill-rule="evenodd" clip-rule="evenodd" d="M48.9897 58.6393C52.1907 57.7285 54.5567 55.9771 56.6443 53.6651C58.4536 51.7035 59.2887 49.3915 59.7062 46.7993C60.3325 43.0162 60.2629 39.233 59.8454 35.4498C59.4974 32.5774 59.1495 29.775 58.5232 26.9726C57.9665 24.3104 56.2964 22.629 54.0696 21.3679C53.0954 20.8775 52.0516 20.5272 51.0773 20.1769C48.9897 19.4063 46.8325 18.7757 44.7449 18.0051C42.3789 17.1644 40.5696 15.7632 39.317 13.5213C38.9691 12.9608 38.4124 12.8908 37.9948 13.3812C37.9253 13.4513 37.9253 13.5213 37.8557 13.5914C36.5335 15.9734 34.3763 17.4446 32.0799 18.8458C30.201 20.0368 28.2526 21.1578 26.2345 22.1386C23.3814 23.4697 21.3634 25.5715 20.5284 28.7942C19.6237 32.2971 19.067 35.8001 19.6933 39.3731C20.0412 41.2647 20.1108 43.2263 20.3892 45.1179C20.5284 46.0287 20.7371 46.9395 21.0155 47.8502C22.4072 52.334 25.5387 55.3465 29.7139 57.2381C31.4536 58.0088 33.3325 58.5693 35.3505 59.2698C35.6289 59.8303 35.3505 60.5309 35.0026 61.2315C33.8892 63.5434 32.2887 65.365 29.9923 66.4859C28.3918 67.2566 26.7912 67.9572 25.1211 68.5176C22.8943 69.2883 20.9459 70.5493 18.9974 71.7403C17.8144 72.4409 17.049 73.5619 16.4923 74.7529C15.866 76.0139 15.3093 77.275 14.683 78.6762C14.2655 78.6762 13.7784 78.8163 13.4304 78.6762C12.0387 78.0457 10.5773 77.4151 9.32474 76.5744C7.65464 75.3834 6.68041 73.7721 6.95876 71.6002C7.02835 70.9697 7.3067 70.4092 7.51547 69.8487C7.65464 69.4284 7.79382 69.008 7.93299 68.4476C7.37629 68.2374 6.95876 68.0973 6.54124 68.0272C5.21907 67.747 4.10567 67.0464 3.20103 66.0656C2.29639 65.1548 1.80928 64.0339 1.73969 62.7728C1.6701 61.0914 1.87887 59.5501 2.64433 58.0088C2.92268 57.5184 3.13144 57.028 3.47938 56.6076C5.91495 53.525 5.91495 50.0221 5.42784 46.449C5.28866 45.5383 5.0799 44.7676 4.87114 43.997C4.31443 41.8952 4.5232 39.7934 5.21907 37.8318C6.26289 35.0294 7.44588 32.3672 9.32474 30.0552C10.9948 28.0235 11.6907 25.7816 11.6907 23.1895C11.6907 21.508 11.8299 19.7566 11.8995 18.0752C12.0387 14.8524 13.3608 12.0501 15.7268 9.80819C16.9794 8.61719 18.3015 7.56631 19.7629 6.65554C21.7809 5.46454 24.0077 4.41365 26.165 3.36277C27.4871 2.73223 28.9485 2.52206 30.4794 2.66218C32.9845 2.94241 35.4201 2.66218 37.7861 2.03164C39.5954 1.54123 41.4046 1.33105 43.2835 1.33105C45.1624 1.33105 46.9717 1.75141 48.5722 2.66218C50.9381 4.06336 53.3041 5.60465 55.3918 7.42619C57.0619 8.89743 58.384 10.5088 59.1495 12.6106C59.6366 13.9417 60.4717 15.0626 61.5155 15.9734C62.4201 16.744 63.2552 17.4446 64.1598 18.2853C66.8041 20.7374 68.3351 23.7499 68.683 27.4631C69.0309 31.5265 68.5438 35.3797 66.7345 39.0228C66.4562 39.6533 66.2474 40.2839 65.9691 40.9844C65.3428 42.5257 65.6907 43.9269 66.7345 45.1179C67.3608 45.8886 68.1959 46.5191 68.8918 47.2197C69.866 48.2706 70.9098 49.3915 71.7448 50.5825C73.415 52.8945 73.415 55.3465 71.9536 57.7986C71.6057 58.3591 71.2577 58.8495 70.9794 59.41C70.4923 60.3908 70.5619 61.3716 71.2577 62.2123C71.884 62.983 72.6495 63.6135 73.415 64.3141C74.25 65.0847 75.2242 65.7853 76.0593 66.556C77.451 67.817 77.799 69.4284 77.1727 71.2499C76.8943 71.9505 76.616 72.7212 76.268 73.3517C74.8067 75.8738 72.8583 77.9055 70.4923 79.8672C70.2139 79.4468 70.0052 79.1666 69.866 78.8864C69.518 77.9756 69.1701 76.9948 68.8918 76.0139C67.4304 71.4601 64.299 68.5877 60.1237 66.6961C58.1753 65.7853 56.1572 64.9446 54.2784 63.9638C53.3041 63.4734 52.3995 62.9129 51.4948 62.3524C50.1727 61.5117 49.4072 60.3207 48.9897 58.6393ZM14.1263 40.424C13.3608 40.494 12.9433 40.424 12.8041 40.5641C12.3866 40.9844 11.9691 41.4749 11.6907 42.0353C10.9948 43.5066 10.5773 45.1179 10.5077 46.7293C10.4381 48.4808 10.9253 50.0921 11.9691 51.4933C12.317 51.9136 12.5954 52.334 12.9433 52.8244C12.4562 53.6651 11.9691 54.5058 11.482 55.2765C10.5773 56.8178 9.88144 58.4291 9.60309 60.2507C9.18557 63.1231 10.0902 65.5752 12.2474 67.5368C12.4562 67.6769 12.7345 68.0272 13.0825 67.5368C12.8041 67.0464 12.5954 66.4859 12.2474 65.9955C10.5773 63.053 10.5773 60.1105 12.1778 57.1681C12.6649 56.1872 13.2217 55.2765 13.7784 54.3657C14.683 52.7544 14.683 52.4041 13.5 51.0729C12.0387 49.5316 11.6907 47.7101 11.9691 45.6784C12.3866 43.9269 12.8041 42.3156 14.1263 40.424ZM64.0206 51.0729C64.6469 51.9136 65.134 52.4041 65.482 52.9645C66.1778 53.9454 66.2474 54.9962 65.6211 55.9771C65.2732 56.4675 64.9253 56.9579 64.5773 57.4483C64.0206 58.219 64.0206 59.0597 64.5077 59.8303C64.8557 60.3207 65.2036 60.8812 65.6211 61.3016C66.8041 62.5626 66.9433 64.0339 66.317 65.5752C66.1083 65.9955 65.9691 66.4159 65.8995 66.9063C65.8995 67.1165 66.0387 67.4667 66.1778 67.4667C66.4562 67.4667 66.8041 67.4667 66.9433 67.2566C68.4742 65.2249 68.4742 62.9129 66.9433 60.8812C66.3866 60.1806 65.6211 59.6201 65.5515 58.4992C65.8995 57.9387 66.317 57.3782 66.7345 56.8178C68.0567 54.6459 67.2912 52.1238 64.9948 50.9328C64.8557 50.8628 64.5773 51.0029 64.0206 51.0729ZM60.9588 21.6482C61.0284 21.9985 61.0284 22.2787 61.0979 22.5589C61.5155 23.3996 61.933 24.2403 62.3505 25.0811C63.6031 27.7433 64.0902 30.4756 63.3943 33.4181C63.2552 34.1187 63.1856 34.8193 63.116 35.4498C63.116 35.73 63.1856 35.9402 63.3247 36.3606C64.5077 35.0294 64.9948 33.6983 65.0644 31.5965C65.2036 28.3038 64.1598 25.3613 62.4201 22.629C62.1418 22.1386 61.8634 21.5781 60.9588 21.6482ZM15.7964 25.2912C16.1443 24.6607 16.3531 24.3805 16.4923 24.0302C17.2577 20.4572 18.9974 17.3746 21.0851 14.5021C21.2242 14.292 21.5026 14.0818 21.2938 13.7315C20.3196 13.8016 20.3196 13.8016 19.9717 14.292C18.3015 16.4638 16.8402 18.7057 16.0052 21.2979C15.7268 22.0685 15.518 22.9092 15.4485 23.7499C15.3093 24.1002 15.5876 24.5206 15.7964 25.2912ZM22.8247 22.629C23.451 22.2086 23.799 22.0685 24.0077 21.8583C26.0954 19.4063 28.1134 16.8842 30.1314 14.4321C30.4098 14.0818 30.6186 13.6614 30.8273 13.2411C30.8969 13.171 30.8273 12.8908 30.7577 12.8207C30.549 12.7507 30.3402 12.6806 30.1314 12.7507C29.9227 12.8207 29.7835 13.0309 29.6443 13.171C27.9046 15.2027 26.0954 17.2344 24.4253 19.2662C23.9381 19.8266 23.5206 20.5272 23.1727 21.1578C22.9639 21.508 22.9639 21.9284 22.8247 22.629ZM21.7809 55.7669C21.5722 55.6968 21.433 55.6968 21.2242 55.6268C20.0412 57.3082 19.3454 59.1998 19.2758 61.3716C19.2758 61.5818 19.2758 61.862 19.3454 62.0722C19.4845 62.8429 19.9021 63.4734 20.5979 63.8937C21.0851 64.174 21.6418 64.6644 22.268 64.174C22.268 64.1039 22.3376 64.0339 22.268 63.9638C22.1985 63.7536 22.1289 63.4734 21.9201 63.4033C20.4588 62.2824 20.5284 60.8111 21.0155 59.1998C21.2242 58.3591 21.5722 57.5884 21.7809 56.7477C21.8505 56.4675 21.7809 56.0471 21.7809 55.7669ZM54.9742 17.7949C55.0438 17.3746 55.0438 17.2344 55.0438 17.2344C54.9742 17.0243 54.8351 16.8141 54.6959 16.674C52.8866 14.8524 50.8686 13.3812 48.5722 12.2603C48.1546 12.0501 47.7371 11.91 47.25 11.8399C46.8325 11.7698 46.4845 11.91 46.5541 12.4704C47.8763 13.3111 49.268 14.0818 50.6598 14.9926C52.0516 15.8333 53.2345 17.0943 54.9742 17.7949Z" fill="white"/>
<path fill-rule="evenodd" clip-rule="evenodd" d="M38.2732 14.9927C38.6907 15.413 38.9691 15.6933 39.1778 15.9735C40.3608 17.5849 41.9613 18.6357 43.8402 19.2663C46.3454 20.177 48.9201 21.0878 51.4949 21.9285C52.817 22.3489 54.0696 22.9794 55.0438 23.9602C56.018 24.871 56.7835 25.9919 57.0619 27.253C57.3402 28.5141 57.6186 29.8452 57.7577 31.1062C58.1753 34.2589 58.5232 37.4116 58.8016 40.5642C59.0799 43.3666 58.5928 46.0989 57.6882 48.8312C57.0619 50.5126 56.1572 52.0539 54.9046 53.385C53.4433 54.9263 51.7732 56.1173 49.616 56.4676C45.7191 57.0281 41.8918 57.9388 37.9253 57.7287C37.0206 57.6586 36.0464 57.6586 35.2113 57.3784C33.5412 56.888 31.8711 56.2574 30.201 55.5568C25.817 53.7353 23.2423 50.2323 22.1985 45.6785C21.5026 42.5259 21.0851 39.2331 20.7371 36.0104C20.4588 33.138 21.2242 30.3356 22.1985 27.6033C22.616 26.4123 23.5206 25.5015 24.634 24.871C25.6778 24.2405 26.7912 23.6099 27.8351 23.0495C28.6701 22.559 29.4356 22.1387 30.2706 21.6483C33.1933 19.8267 36.3943 18.2854 38.2732 14.9927ZM47.9459 45.7486C47.25 46.0989 46.8325 46.309 46.3454 46.5893C45.5103 47.1498 44.6753 47.7102 43.8402 48.2707C42.1701 49.4617 40.4304 49.5318 38.6211 48.6911C37.3686 48.1306 36.116 47.5 34.8634 46.9396C34.5155 46.7995 34.0979 46.7294 33.75 46.7995C33.6108 46.7995 33.4021 47.2899 33.4021 47.5001C33.4021 47.6402 33.6108 47.9204 33.8196 47.9905C35.4897 48.9012 37.2294 49.812 38.9691 50.5826C40.5696 51.2832 42.3093 51.1431 43.8402 50.2323C44.9536 49.5318 45.9974 48.7611 47.0412 47.9905C47.3892 47.7102 47.7371 47.3599 47.9459 46.9396C48.0851 46.6593 47.9459 46.239 47.9459 45.7486ZM44.3273 39.3732C43.9098 40.1439 43.6314 40.7043 43.2835 41.1247C42.9356 41.545 42.518 41.8953 42.1005 42.2456C41.8222 42.5259 41.683 42.8762 41.8918 43.2965C42.1005 43.6468 42.7268 43.7869 43.1443 43.4366C43.8402 42.8061 44.5361 42.2456 45.0928 41.475C46.1366 39.9337 46.067 38.2523 44.1881 37.4116C43.0747 36.9211 42.5876 36.0104 42.4485 34.8194C42.3093 33.7685 42.2397 32.6475 42.1005 31.5967C42.1005 31.3164 41.8918 31.1062 41.6134 30.6158C40.5696 32.2272 40.9871 33.7685 40.9871 35.2397C41.1263 37.2714 42.4485 38.3924 44.3273 39.3732ZM29.018 35.4499C29.0876 36.2906 29.0876 36.781 29.1572 37.2014C29.2268 37.8319 29.7139 38.3924 30.1314 38.3223C30.549 38.2523 31.0361 38.0421 31.2449 37.6918C32.0799 36.4307 32.0103 35.0996 31.4536 33.6984C31.1057 32.9278 29.9923 32.8577 29.5747 33.6284C29.2964 34.329 29.1572 35.0996 29.018 35.4499ZM48.0155 34.2589C48.1546 34.8894 48.2938 35.52 48.5026 36.0104C48.7809 36.711 49.616 36.8511 50.2423 36.3607C50.451 36.1505 50.7294 35.9403 50.799 35.6601C51.0773 34.6092 51.0077 33.5583 50.3814 32.5775C49.9639 31.8769 48.8505 31.947 48.5026 32.7176C48.2242 33.208 48.1546 33.7685 48.0155 34.2589ZM52.6083 27.1129C52.3299 25.2913 51.1469 24.5207 49.6856 24.2405C49.1985 24.1704 48.5722 24.3105 48.6418 25.0812C49.9639 25.7818 51.2861 26.4123 52.6083 27.1129ZM30.8969 26.9027C30.6882 26.6225 30.6186 26.3422 30.4098 26.3422C29.1572 25.9919 27.7655 26.5524 27 27.6033C26.9304 27.6734 26.9304 27.9536 27 28.0236C27.1392 28.1638 27.4175 28.444 27.4871 28.3739C28.6005 27.9536 29.7139 27.4632 30.8969 26.9027Z" fill="white"/>
<path fill-rule="evenodd" clip-rule="evenodd" d="M47.3892 58.8496C47.5979 59.1999 47.7371 59.4801 47.8763 59.7604C48.5026 62.0023 49.9639 63.4735 51.982 64.5944C53.3041 65.3651 54.6959 65.9956 56.0876 66.6962C56.6443 66.9765 57.1314 67.2567 57.6881 67.5369C56.9923 69.4986 56.1572 70.5495 54.5567 71.4602C51.0077 73.4919 47.1804 74.4728 43.1443 74.5428C41.9613 74.5428 40.8479 74.5428 39.6649 74.4728C38.8995 74.4027 38.0644 74.3326 37.4381 74.0524C35.0026 72.9315 32.567 71.6704 30.201 70.4794C29.7139 70.2692 29.366 69.7788 28.8789 69.3585C29.366 69.0782 29.7139 68.798 30.1314 68.5878C33.9588 66.7663 36.4639 63.8238 37.2294 59.34C40.5 59.1298 43.9794 58.9897 47.3892 58.8496Z" fill="white"/>
<path fill-rule="evenodd" clip-rule="evenodd" d="M70.6314 82.1092C71.1186 86.1726 71.3969 90.236 71.1186 94.4395C70.2139 94.7898 69.3789 94.6497 68.5438 94.6497C67.7783 94.6497 67.0129 94.6497 66.4562 94.6497C65.6907 94.0892 65.7603 93.3887 65.7603 92.8282C65.6907 90.236 65.6907 87.7139 65.5515 85.1217C65.4124 80.6379 64.7861 76.1541 63.8814 71.7404C63.6031 70.2692 62.768 69.4285 61.3067 68.868C61.7242 71.18 62.2113 73.2817 62.4897 75.3835C62.768 77.4853 63.0464 79.517 63.1856 81.6187C63.3247 83.7906 63.3247 85.9624 63.3247 88.1342C63.3247 90.236 63.4639 92.2677 63.2552 94.5096C61.0284 94.7198 59.0103 94.6497 56.8531 94.5797C56.366 90.8665 56.5747 87.2935 56.1572 83.7906C55.7397 80.3577 55.2526 76.8547 54.1392 73.632C53.4433 73.3518 53.0258 73.7721 52.4691 74.1224C52.6778 76.2943 53.3737 78.396 53.5825 80.6379C53.7912 82.9499 54 85.2618 54.1392 87.5738C54.2088 89.8157 54.1392 92.0575 54.1392 94.1593C53.8608 94.3695 53.7216 94.5797 53.6521 94.5797C50.6598 94.7898 47.6675 94.6497 44.8144 94.7198C43.9794 94.0192 44.1881 93.1785 44.1881 92.4078C44.1186 87.924 43.9794 83.4403 43.9098 78.8864C43.9098 78.2559 43.9098 77.6254 43.8402 76.9949C43.7706 76.0841 43.4923 75.8039 42.518 75.8739C42.3093 75.8739 42.1005 76.014 41.8918 76.0841C41.8918 79.0966 41.8918 82.1092 41.8918 85.1217C41.8918 88.1342 41.7526 91.1468 41.683 94.0192C41.4046 94.2294 41.3351 94.4395 41.1959 94.4395C38.3428 94.6497 35.4897 94.5797 32.8454 94.5096C32.1495 93.9491 32.2887 93.2485 32.2887 92.6881C32.1495 86.5929 32.4278 80.5679 33.5412 74.6128C33.6108 74.4027 33.5412 74.1925 33.5412 73.7721C33.1237 73.562 32.7062 73.3518 32.0799 73.0015C30.9665 76.5745 30.6881 80.0775 30.2706 83.6505C29.8531 87.1534 30.1314 90.7965 29.7835 94.2994C28.4613 94.7198 27.2088 94.5096 26.0258 94.5797C24.9124 94.6497 23.7294 94.5797 22.5464 94.5797C21.8505 92.8982 22.268 91.2869 22.268 89.6755C22.268 88.0642 22.3376 86.3828 22.4768 84.7714C22.616 83.09 22.8247 81.4086 23.1031 79.7272C23.3814 78.1158 23.7294 76.5044 24.0773 74.9631C24.4253 73.3518 24.9124 71.8105 25.3299 70.2692C24.2165 70.1291 23.6598 70.3392 23.2423 71.0398C23.0335 71.4602 22.8943 71.8805 22.7552 72.371C21.0851 77.205 20.3892 82.1792 20.1108 87.2235C20.0412 88.9749 19.9717 90.7965 19.9717 92.548C19.9717 93.1785 19.9021 93.739 19.8325 94.4395C17.884 94.93 16.0052 94.8599 13.9871 94.7898C13.8479 94.2994 13.7088 93.8791 13.7088 93.4587C13.9175 89.9558 13.7784 86.4528 14.3351 83.0199C14.4742 82.1792 14.6134 81.3385 14.4742 80.4277C12.7345 80.0074 11.0644 79.3769 9.60309 78.396C8.83763 77.9056 8.07217 77.3451 7.44588 76.6446C6.12371 75.2434 5.42784 73.562 5.56701 71.6003C5.6366 70.8997 5.6366 70.1991 5.70619 69.4985C5.0799 69.1482 4.45361 68.7979 3.89691 68.4477C0.695878 66.5561 -0.417524 63.8238 0.139177 60.3208C0.417528 58.7795 0.974229 57.3783 1.80928 56.0472C2.22681 55.4167 2.64433 54.7861 3.06186 54.0856C3.89691 52.8245 4.31443 51.4233 4.10567 49.882C3.89691 48.1305 3.68815 46.309 3.34021 44.6276C2.85309 41.9654 2.92268 39.3732 3.89691 36.851C5.01031 34.0487 6.26289 31.3164 8.21134 28.9344C9.53351 27.323 10.1598 25.5015 10.0902 23.3297C10.0902 21.2279 10.2294 19.1261 10.4381 17.0944C10.7165 14.292 11.8299 11.91 13.6392 9.73821C14.8222 8.33703 16.1443 7.21609 17.6057 6.23526C20.25 4.48378 23.1727 3.15266 26.0258 1.96166C27.6959 1.26107 29.5052 1.26107 31.2448 1.54131C33.1237 1.8916 34.933 1.61137 36.6727 1.05089C38.8299 0.350304 40.9871 0.0700684 43.2835 0.0700684C45.232 0.0700684 47.1108 0.490422 48.7809 1.47125C51.1469 2.94249 53.5129 4.41373 55.7397 6.02508C57.8969 7.56638 59.567 9.59809 60.5412 12.1903C60.8892 13.2412 61.585 14.0819 62.4201 14.8525C63.3943 15.6932 64.3686 16.604 65.4124 17.4447C67.1521 18.986 68.3351 20.8075 69.1701 22.9794C69.4485 23.75 69.7268 24.5907 69.7964 25.4314C70.0052 27.3931 70.0747 29.2847 70.1443 31.2463C70.2139 33.9086 69.5876 36.5007 68.5438 38.9528C68.1959 39.7935 67.8479 40.7043 67.5 41.545C67.0825 42.6659 67.2912 43.7168 68.1263 44.5575C68.7526 45.118 69.3789 45.6785 69.9356 46.309C71.049 47.5 72.1624 48.691 73.1366 49.9521C75.0155 52.6844 75.085 55.5568 73.5541 58.4993C73.4845 58.6394 73.4149 58.7795 73.3454 58.9196C72.0232 60.7412 72.232 61.0915 74.1108 62.7028C75.0155 63.4735 75.9201 64.1741 76.8247 64.8746C79.5387 67.1866 79.6778 70.1991 78.5644 72.8614C77.2423 75.944 75.2242 78.396 72.7191 80.4978C72.1624 80.9882 71.5361 81.4786 70.6314 82.1092ZM48.9897 58.6394C49.4072 60.3208 50.1727 61.5118 51.4253 62.3525C52.3299 62.9831 53.2345 63.5435 54.2088 63.9639C56.1572 64.8746 58.1057 65.7854 60.0541 66.6962C64.2294 68.5878 67.4304 71.4602 68.8222 76.014C69.1005 76.9949 69.4485 77.9056 69.7964 78.8864C69.9356 79.2367 70.1443 79.4469 70.4227 79.8673C72.7887 77.9056 74.7371 75.8739 76.1985 73.3518C76.616 72.7213 76.8943 71.9506 77.1031 71.25C77.7294 69.4285 77.3814 67.8872 75.9897 66.5561C75.1546 65.7854 74.1804 65.0848 73.3454 64.3142C72.5799 63.6836 71.8144 62.9831 71.1881 62.2124C70.4923 61.3717 70.4227 60.3909 70.9098 59.41C71.1881 58.8496 71.5361 58.3592 71.884 57.7987C73.3454 55.3466 73.3454 52.8946 71.6753 50.5826C70.8402 49.3916 69.7964 48.3407 68.8222 47.2198C68.1263 46.4491 67.3608 45.8186 66.6649 45.118C65.6211 43.927 65.2732 42.5258 65.8995 40.9845C66.1778 40.354 66.3866 39.6534 66.6649 39.0229C68.4046 35.3798 68.9613 31.5266 68.6134 27.4631C68.2655 23.75 66.7345 20.8075 64.0902 18.2854C63.2552 17.5148 62.3505 16.7441 61.4459 15.9735C60.4021 15.0627 59.567 13.9418 59.0799 12.6106C58.3144 10.5089 56.9923 8.82744 55.3222 7.42626C53.2345 5.60473 50.8686 4.06343 48.5026 2.66225C46.8325 1.68143 45.0928 1.26107 43.2139 1.33113C41.3351 1.33113 39.5258 1.54131 37.7165 2.03172C35.2809 2.66225 32.8454 2.94249 30.4098 2.66225C28.9485 2.52213 27.4871 2.73231 26.0954 3.36284C23.9381 4.41373 21.7809 5.39455 19.6933 6.65561C18.232 7.49632 16.9098 8.61727 15.6572 9.80827C13.3608 12.0502 12.0387 14.7825 11.8299 18.0752C11.7603 19.7566 11.6211 21.5081 11.6211 23.1895C11.6907 25.7817 10.9253 28.0937 9.25516 30.0553C7.44588 32.3673 6.26289 35.0295 5.28866 37.8319C4.5232 39.8636 4.38402 41.8953 4.94072 43.9971C5.14949 44.7677 5.28866 45.5384 5.42784 46.239C5.91495 49.882 5.98454 53.385 3.47938 56.3975C3.13144 56.8179 2.92268 57.3083 2.64433 57.7987C1.87887 59.2699 1.6701 60.8813 1.73969 62.5627C1.80928 63.8238 2.29639 64.9447 3.20103 65.8555C4.10567 66.8363 5.21907 67.5369 6.54124 67.8171C6.95876 67.8872 7.37629 68.0974 7.93299 68.2375C7.79382 68.798 7.65464 69.2183 7.51547 69.6387C7.3067 70.1991 7.09794 70.8297 6.95876 71.3901C6.68041 73.562 7.72423 75.1733 9.32474 76.3643C10.5773 77.205 12.0387 77.8356 13.4304 78.4661C13.7784 78.6062 14.2655 78.4661 14.683 78.4661C15.3093 77.0649 15.866 75.8039 16.4923 74.5428C17.049 73.3518 17.8144 72.2308 18.9974 71.5302C21.0155 70.3392 22.8943 69.0782 25.1211 68.3075C26.7912 67.7471 28.4613 67.0465 29.9923 66.2758C32.2887 65.1549 33.8892 63.2633 35.0026 61.0214C35.3505 60.3208 35.6289 59.6202 35.3505 59.0598C33.3325 58.3592 31.4536 57.7987 29.7139 57.028C25.5387 55.1364 22.4768 52.1239 21.0155 47.6401C20.7371 46.7294 20.5283 45.8186 20.3892 44.9078C20.1108 43.0162 19.9716 41.0546 19.6933 39.163C19.067 35.59 19.6237 32.087 20.5284 28.5841C21.3634 25.3614 23.3814 23.2596 26.2345 21.9285C28.2526 20.9477 30.201 19.8267 32.0799 18.6357C34.3067 17.2345 36.5335 15.8333 37.8557 13.3813C37.9253 13.3112 37.9253 13.2412 37.9948 13.1711C38.4124 12.6807 38.9691 12.7507 39.317 13.3112C40.5696 15.483 42.3789 16.9543 44.7448 17.795C46.8325 18.5656 48.9897 19.2662 51.0773 19.9668C52.1211 20.3171 53.1649 20.6674 54.0696 21.1578C56.366 22.3488 57.9665 24.0302 58.5232 26.7625C59.1495 29.5649 59.4974 32.4373 59.8454 35.2397C60.2629 39.0229 60.3325 42.8061 59.7062 46.5892C59.2887 49.1814 58.384 51.4934 56.6443 53.455C54.5567 55.9772 52.1907 57.7286 48.9897 58.6394ZM38.2732 14.9926C36.3943 18.3555 33.1933 19.8968 30.3402 21.7183C29.5747 22.2087 28.7397 22.6291 27.9046 23.1195C26.8608 23.75 25.7474 24.3105 24.7036 24.941C23.5902 25.5715 22.6856 26.4123 22.268 27.6733C21.2938 30.4056 20.5284 33.208 20.8067 36.0804C21.1546 39.3031 21.5722 42.5258 22.268 45.7485C23.2423 50.3024 25.817 53.8053 30.2706 55.6269C31.8711 56.3274 33.5412 56.8879 35.2809 57.4484C36.116 57.7286 37.0902 57.7286 37.9948 57.7987C41.9613 58.0089 45.7887 57.1682 49.6856 56.5376C51.8428 56.1873 53.5129 54.9963 54.9742 53.455C56.2268 52.1239 57.1314 50.6527 57.7577 48.9012C58.6624 46.239 59.1495 43.5067 58.8711 40.6342C58.5928 37.4816 58.1753 34.3289 57.8273 31.1763C57.6881 29.8451 57.4098 28.5841 57.1314 27.323C56.8531 25.9919 56.0876 24.941 55.1134 24.0302C54.0696 23.0494 52.8866 22.4189 51.5644 21.9985C48.9897 21.1578 46.4845 20.2471 43.9098 19.3363C42.0309 18.6357 40.5 17.5848 39.2474 16.0435C38.9691 15.6232 38.6907 15.413 38.2732 14.9926ZM47.3892 58.8496C43.9794 58.9897 40.5 59.1999 37.0902 59.34C36.3943 63.8238 33.8892 66.6962 29.9923 68.5878C29.5747 68.798 29.2268 69.0081 28.7397 69.3584C29.2268 69.7788 29.6443 70.2692 30.0619 70.4794C32.4278 71.7404 34.8634 72.9314 37.299 74.0524C37.9948 74.3326 38.7603 74.4727 39.5258 74.4727C40.6392 74.5428 41.8222 74.6128 43.0052 74.5428C47.0412 74.4027 50.9381 73.4919 54.4175 71.4602C55.9485 70.5494 56.8531 69.4985 57.549 67.5369C56.9923 67.2567 56.5052 66.9764 55.9485 66.6962C54.5567 65.9956 53.1649 65.3651 51.8428 64.5944C49.8943 63.5435 48.3634 62.0022 47.7371 59.7603C47.7371 59.4801 47.5979 59.1999 47.3892 58.8496Z" fill="#222B6C"/>
<path fill-rule="evenodd" clip-rule="evenodd" d="M14.1263 40.4241C12.7345 42.3157 12.3866 43.927 12.1778 45.6785C11.8995 47.7102 12.2474 49.5317 13.7088 51.073C14.8918 52.4042 14.8918 52.7545 13.9871 54.3658C13.5 55.3466 12.8737 56.2574 12.3866 57.1682C10.7861 60.1106 10.7861 63.0531 12.4562 65.9956C12.7345 66.486 13.0129 67.0465 13.2912 67.5369C12.8737 68.0273 12.5954 67.677 12.4562 67.5369C10.2294 65.5753 9.39433 63.1232 9.81186 60.2508C10.0206 58.4292 10.7861 56.8179 11.6907 55.2766C12.1778 54.5059 12.5954 53.6652 13.1521 52.8245C12.8041 52.3341 12.4562 51.9137 12.1778 51.4934C11.0644 50.0922 10.6469 48.4809 10.7165 46.7294C10.7861 45.048 11.2036 43.5067 11.8995 42.0354C12.1778 41.475 12.5954 40.9845 13.0129 40.5642C13.0129 40.4241 13.3608 40.4941 14.1263 40.4241Z" fill="#222B6C"/>
<path fill-rule="evenodd" clip-rule="evenodd" d="M64.0206 51.073C64.5773 51.003 64.8557 50.8629 64.9949 50.9329C67.2912 52.1239 67.9871 54.646 66.7345 56.8179C66.3866 57.3783 65.9691 57.9388 65.5515 58.4993C65.5515 59.5502 66.3866 60.1106 66.9433 60.8813C68.4046 62.9831 68.4742 65.2249 66.9433 67.2567C66.8041 67.4668 66.3866 67.4668 66.1778 67.4668C66.0387 67.4668 65.8995 67.0465 65.8995 66.9064C65.9691 66.486 66.1083 65.9956 66.317 65.5752C67.0129 63.9639 66.8041 62.5627 65.6211 61.3016C65.2036 60.8813 64.8557 60.3208 64.5077 59.8304C63.951 59.0598 64.0206 58.219 64.5773 57.4484C64.9253 56.958 65.3428 56.4676 65.6211 55.9772C66.317 54.9263 66.1778 53.9455 65.482 52.9646C65.0644 52.4042 64.6469 51.8437 64.0206 51.073Z" fill="#222B6C"/>
<path fill-rule="evenodd" clip-rule="evenodd" d="M60.9588 21.6483C61.8634 21.5782 62.1418 22.1387 62.4201 22.6291C64.1598 25.3614 65.2036 28.3039 65.0644 31.5967C64.9253 33.6984 64.5077 35.0296 63.3247 36.3607C63.2552 36.0104 63.116 35.7302 63.116 35.4499C63.1856 34.7493 63.2552 34.0487 63.3943 33.4182C64.0206 30.4757 63.6031 27.7434 62.3505 25.0812C61.933 24.2405 61.5155 23.3998 61.0979 22.5591C61.0284 22.2788 61.0284 21.9986 60.9588 21.6483Z" fill="#222B6C"/>
<path fill-rule="evenodd" clip-rule="evenodd" d="M15.7964 25.2914C15.5876 24.5908 15.3093 24.1004 15.3093 23.7501C15.3789 22.9094 15.5876 22.0687 15.866 21.2981C16.7706 18.7059 18.1624 16.3939 19.8325 14.2922C20.1804 13.8017 20.25 13.8017 21.1546 13.7317C21.433 14.082 21.1546 14.2922 20.9459 14.5023C18.8582 17.3748 17.1186 20.5274 16.3531 24.0304C16.4227 24.3807 16.1443 24.6609 15.7964 25.2914Z" fill="#222B6C"/>
<path fill-rule="evenodd" clip-rule="evenodd" d="M22.8247 22.629C22.9639 21.9284 22.9639 21.5081 23.1031 21.2278C23.451 20.5273 23.8686 19.8967 24.3557 19.3363C26.0954 17.3045 27.8351 15.2728 29.5747 13.2411C29.7139 13.101 29.9227 12.8908 30.0619 12.8208C30.201 12.7507 30.4794 12.8208 30.6881 12.8908C30.7577 12.8908 30.8273 13.1711 30.7577 13.3112C30.549 13.7315 30.3402 14.1519 30.0619 14.5022C28.0438 17.0243 25.9562 19.4764 23.9381 21.9284C23.799 22.1386 23.451 22.2787 22.8247 22.629Z" fill="#222B6C"/>
<path fill-rule="evenodd" clip-rule="evenodd" d="M21.7809 55.767C21.7809 56.1173 21.8505 56.4676 21.7809 56.8179C21.5722 57.6586 21.2938 58.4293 21.0155 59.27C20.5283 60.8113 20.4588 62.2825 21.9201 63.4735C22.0593 63.6137 22.1289 63.8238 22.268 64.034C22.268 64.1041 22.268 64.1741 22.268 64.2442C21.6418 64.6645 21.0851 64.2442 20.5979 63.964C19.9021 63.5436 19.4845 62.9131 19.3454 62.1424C19.2758 61.9322 19.2758 61.652 19.2758 61.4418C19.2758 59.3401 20.0412 57.4485 21.2242 55.697C21.3634 55.6269 21.5722 55.697 21.7809 55.767Z" fill="#222B6C"/>
<path fill-rule="evenodd" clip-rule="evenodd" d="M54.9742 17.7949C53.2345 17.0943 52.0516 15.8332 50.6598 14.9225C49.3376 14.0818 47.9459 13.2411 46.5541 12.4004C46.4845 11.8399 46.8325 11.6998 47.25 11.7698C47.6675 11.8399 48.1546 11.98 48.5722 12.1902C50.8686 13.3111 52.8866 14.8524 54.6959 16.6039C54.8351 16.744 54.9046 16.9542 55.0438 17.1644C55.0438 17.3045 55.0438 17.3745 54.9742 17.7949Z" fill="#222B6C"/>
<path fill-rule="evenodd" clip-rule="evenodd" d="M47.9459 45.7485C47.9459 46.309 48.0851 46.6593 48.0155 46.9395C47.8067 47.3599 47.5283 47.7102 47.1108 47.9904C46.067 48.7611 45.0232 49.6018 43.9098 50.2323C42.3789 51.1431 40.6392 51.2832 39.0387 50.5826C37.299 49.812 35.6289 48.9012 33.8892 47.9904C33.6804 47.9204 33.4716 47.6401 33.4716 47.5C33.4716 47.2198 33.6108 46.7994 33.8196 46.7994C34.1675 46.7294 34.5851 46.7994 34.933 46.9395C36.1856 47.5 37.4381 48.0605 38.6907 48.691C40.5 49.5317 42.2397 49.4617 43.9098 48.2707C44.7448 47.7102 45.5799 47.1497 46.4149 46.5892C46.7629 46.309 47.25 46.0988 47.9459 45.7485Z" fill="#222B6C"/>
<path fill-rule="evenodd" clip-rule="evenodd" d="M44.3273 39.3731C42.4485 38.3923 41.1959 37.3414 41.1263 35.3798C41.0567 33.9085 40.6392 32.3672 41.7526 30.7559C42.0309 31.2463 42.1701 31.4564 42.2397 31.7367C42.3789 32.7876 42.4485 33.9085 42.5876 34.9594C42.7268 36.1504 43.2139 36.9911 44.3273 37.5516C46.2062 38.3923 46.2758 40.0737 45.232 41.615C44.7448 42.3857 43.9794 42.9461 43.2835 43.5767C42.866 43.9269 42.2397 43.7868 42.0309 43.4365C41.8222 43.0162 41.9613 42.6659 42.2397 42.3857C42.5876 41.9653 43.0747 41.6851 43.4227 41.2647C43.6314 40.6342 43.9098 40.0737 44.3273 39.3731Z" fill="#222B6C"/>
<path fill-rule="evenodd" clip-rule="evenodd" d="M29.018 35.4499C29.1572 35.0296 29.2964 34.2589 29.5747 33.6284C29.9923 32.8577 31.1057 32.9278 31.4536 33.6984C32.0799 35.0296 32.0799 36.4307 31.2448 37.6918C31.0361 38.0421 30.549 38.2523 30.1314 38.3223C29.7139 38.3924 29.2268 37.902 29.1572 37.2014C29.0876 36.781 29.0876 36.2906 29.018 35.4499Z" fill="#222B6C"/>
<path fill-rule="evenodd" clip-rule="evenodd" d="M48.0155 34.259C48.1546 33.7686 48.2242 33.2081 48.433 32.7177C48.7809 31.947 49.8943 31.947 50.3119 32.5775C50.9381 33.5584 51.0077 34.6093 50.7294 35.6601C50.6598 35.9404 50.3814 36.1506 50.1727 36.3607C49.616 36.8511 48.7113 36.711 48.433 36.0104C48.2242 35.52 48.1546 34.8895 48.0155 34.259Z" fill="#222B6C"/>
<path fill-rule="evenodd" clip-rule="evenodd" d="M52.6082 27.1127C51.2861 26.4121 49.9639 25.7816 48.6418 25.081C48.5722 24.3104 49.1985 24.1702 49.6856 24.2403C51.1469 24.5205 52.3299 25.2912 52.6082 27.1127Z" fill="#222B6C"/>
<path fill-rule="evenodd" clip-rule="evenodd" d="M30.8969 26.9028C29.7139 27.3932 28.6005 27.8836 27.4871 28.374C27.3479 28.4441 27.1392 28.1638 27 28.0237C26.9304 27.9536 26.9304 27.7435 27 27.6034C27.6959 26.5525 29.1572 25.992 30.4098 26.3423C30.549 26.4124 30.6881 26.6926 30.8969 26.9028Z" fill="#222B6C"/>
</g>
<defs>
<clipPath id="clip0_168_264">
<rect width="79.3299" height="95" fill="white"/>
</clipPath>
</defs>
</svg>
