<svg width="67" height="95" viewBox="0 0 67 95" fill="none" xmlns="http://www.w3.org/2000/svg">
<g clip-path="url(#clip0_239_789)">
<path fill-rule="evenodd" clip-rule="evenodd" d="M7.86067 93.522C7.86067 93.3205 7.79348 93.1861 7.79348 93.0517C7.7263 92.7158 7.39037 92.3799 7.12163 92.3127C6.65133 92.1111 6.18104 92.3127 5.97948 92.783C5.84511 93.0517 5.71074 93.3205 5.64355 93.6564C6.31541 93.522 7.12163 93.522 7.86067 93.522Z" fill="white"/>
<path fill-rule="evenodd" clip-rule="evenodd" d="M22.5742 94.4626C22.507 93.9923 22.4399 93.5892 22.3727 93.1189C22.2383 92.5142 21.8352 92.1111 21.3649 92.1111C20.8946 92.1111 20.4243 92.5142 20.2899 93.1189C20.1556 93.5892 20.1556 94.1266 20.0884 94.5969C20.8946 94.4626 21.768 94.4626 22.5742 94.4626Z" fill="white"/>
<path fill-rule="evenodd" clip-rule="evenodd" d="M60.4668 93.5219C60.3996 93.186 60.3996 92.7829 60.3325 92.447C60.1981 91.9095 59.7278 91.4392 59.2575 91.4392C58.6528 91.4392 58.2497 91.8423 58.1825 92.3798C57.981 93.186 57.9138 93.9922 57.8466 94.7313H57.7794C58.3841 94.7313 58.9216 94.7313 59.5262 94.7313C59.9293 94.7313 60.3996 94.7313 60.8028 94.7313C60.3325 94.3282 60.4668 93.8579 60.4668 93.5219Z" fill="white"/>
<path fill-rule="evenodd" clip-rule="evenodd" d="M47.9703 94.3953C47.836 93.5891 47.7016 92.8501 47.5 92.0439C47.3657 91.5736 47.0297 91.3048 46.5594 91.3048C46.022 91.3048 45.7532 91.7079 45.6188 92.111C45.4845 92.7829 45.4173 93.4547 45.3501 94.261C46.2907 94.3282 47.0969 94.3282 47.9703 94.3953Z" fill="white"/>
<path fill-rule="evenodd" clip-rule="evenodd" d="M20.6259 20.5588C20.6931 21.2306 20.6931 21.9025 20.7603 22.5071C20.8946 23.5149 21.6337 24.0524 22.6414 23.9852C23.4477 23.918 24.0523 23.5149 24.5898 23.0446C25.5976 22.104 26.6054 21.0962 27.6803 20.1556C28.1506 19.7525 28.4866 19.0807 29.2256 19.0135V18.9463C29.1584 19.4838 29.024 19.9541 28.9569 20.4916C28.8897 20.8275 28.8225 21.2306 28.8225 21.5665C28.8897 23.6493 30.5693 24.5899 32.3833 23.5149C32.9208 23.179 33.4583 22.7087 33.9286 22.2384C34.4661 21.8353 34.9364 21.365 35.541 20.8275C36.0113 21.4322 35.7426 22.0368 35.8098 22.5743C35.8769 23.2462 35.8769 23.9852 36.6832 24.2539C37.4894 24.5227 38.1612 24.1196 38.5644 23.4477C39.0347 22.7759 39.505 22.104 39.9081 21.365C40.4455 20.5588 40.9158 19.7525 41.5205 18.7448C41.7893 19.215 41.9908 19.4838 42.1924 19.8197C42.7298 20.8947 43.2001 21.9696 43.6704 23.0446C43.872 23.5149 44.2079 23.918 44.4767 24.3883C45.4173 25.732 45.4844 25.732 47.4328 25.3961C47.9703 26.6054 48.575 27.9491 49.1124 29.2257C49.314 29.6288 49.3812 30.1663 49.7171 30.3678C50.5233 30.9053 50.6577 31.6443 50.7921 32.4506C51.128 34.802 51.5311 37.1535 51.5311 39.5722C51.5311 42.1252 51.128 44.6111 50.5233 47.0969C49.9187 49.5828 48.575 51.5984 46.5594 53.1436C45.4173 54.017 44.2751 54.8233 43.0658 55.5623C38.2956 58.5856 33.1223 59.3247 27.6132 58.1825C24.5226 57.5778 21.7008 56.167 19.0806 54.4201C17.401 53.3452 16.3932 51.6655 15.6542 49.8515C14.7136 47.3657 14.0417 44.7455 13.6386 42.058C13.1683 38.9003 12.7652 35.7426 12.4293 32.5177C12.3621 31.7115 12.4293 30.9053 12.4293 30.0319C14.5792 28.2179 16.2588 25.9336 18.0057 23.7165C18.8791 22.6415 19.7525 21.6337 20.6259 20.5588ZM34.4661 40.3112C34.0629 41.5206 33.1223 42.1252 32.2489 42.7971C31.8458 43.133 31.4427 43.4018 31.0396 43.8049C30.9052 43.9392 30.9052 44.2752 30.9724 44.4095C31.0396 44.6111 31.3083 44.7455 31.4427 44.8126C31.7786 44.8126 32.1818 44.8126 32.5177 44.6783C33.8614 44.1408 34.8692 43.2002 35.6754 41.9237C36.5488 40.5128 36.5488 39.7066 35.2723 38.6316C34.1973 37.691 33.6598 36.5489 33.3239 35.2051C33.1895 34.5333 33.1223 33.8614 33.0552 33.1896C32.988 32.5849 32.9208 31.9803 32.8536 31.4428C32.8536 31.2412 32.5177 30.9725 32.4505 30.9725C32.1818 31.0397 31.9802 31.2412 31.7786 31.4428C31.6443 31.5771 31.5771 31.8459 31.5771 32.0474C31.3083 34.8692 31.5771 37.5566 33.7942 39.6394C34.0629 39.8409 34.2645 40.1097 34.4661 40.3112ZM38.2284 49.2469C37.8925 49.2469 37.5566 49.1797 37.2207 49.2469C36.3472 49.4484 35.541 49.7172 34.6676 49.9859C32.1818 50.6578 29.8303 50.5234 27.6132 49.1125C27.21 48.8438 26.7397 48.6422 26.2023 48.4406C26.0679 48.3735 25.732 48.5078 25.6648 48.6422C25.5304 48.7766 25.5304 49.1125 25.5976 49.2469C25.7991 49.5828 26.0007 49.8515 26.2694 50.0531C28.6881 52.0687 31.4427 52.4046 34.3989 51.7999C35.4738 51.5984 36.4816 51.0609 37.4894 50.5906C37.9597 50.4562 38.3628 50.0531 38.2284 49.2469ZM42.9986 34.8692C42.8642 34.5333 42.7298 33.7943 42.3939 33.1896C42.058 32.5849 41.1174 32.5849 40.6471 33.0552C39.9081 33.8614 39.7065 35.9442 40.3112 36.8176C40.7143 37.4223 41.6549 37.5566 42.2595 37.0192C42.797 36.616 42.9986 35.9442 42.9986 34.8692ZM21.7008 36.6832C21.768 36.8848 21.768 37.2207 21.8352 37.4894C22.104 38.43 22.9774 38.6988 23.7164 38.0941C24.7242 37.2879 25.0601 35.6083 24.5226 34.4661C24.1867 33.7943 23.1789 33.5927 22.6414 34.1974C21.9696 34.8692 21.8352 35.7426 21.7008 36.6832ZM23.0446 26.0679C21.4993 26.2695 20.0212 26.5382 18.6103 27.4117C18.4088 27.546 18.2072 27.6804 18.14 27.882C18.0728 28.0835 18.0057 28.3522 18.0728 28.4866C18.14 28.621 18.476 28.7554 18.6103 28.6882C20.1556 27.9491 21.8352 27.546 23.5148 27.3445C23.582 27.3445 23.6492 27.2773 23.7164 27.2773C23.8508 27.1429 24.0523 26.9414 24.0523 26.7398C24.0523 26.5382 23.8508 26.3367 23.6492 26.2695C23.5148 26.0679 23.3133 26.0679 23.0446 26.0679ZM43.3345 26.6054C43.3345 26.5382 43.3345 26.4711 43.3345 26.4039C43.2673 26.2695 43.2001 26.1351 43.133 26.0679C41.6549 25.2617 40.1768 25.3289 38.6315 25.9336C38.4972 26.0008 38.3628 26.3367 38.3628 26.4711C38.43 26.6054 38.6315 26.8742 38.7659 26.8742C40.1768 26.9414 41.5877 26.9414 42.9986 26.8742C43.133 26.8742 43.2001 26.6726 43.3345 26.6054Z" fill="white"/>
<path fill-rule="evenodd" clip-rule="evenodd" d="M16.5948 74.6429C17.6026 74.1726 18.3417 73.8367 19.0807 73.5679C20.8947 72.8289 22.5072 71.7539 23.9852 70.4774C26.2023 68.5962 27.4789 66.2447 27.9492 63.4229C28.0835 62.4824 28.2179 61.5418 28.4195 60.4668C30.435 60.4668 32.3162 60.6012 34.2646 60.4668C36.0786 60.3324 37.8926 59.9293 39.7738 59.5934C39.841 60.0637 39.9081 60.3996 39.9081 60.8027C40.0425 64.4307 41.5206 67.3869 44.0736 69.8727C45.6861 71.4852 47.5673 72.6273 49.65 73.5007C50.2547 73.7695 50.7922 74.0382 51.5984 74.4413C51.1281 74.7773 50.8593 74.9788 50.5234 75.1804C46.8282 77.1287 43.2002 79.0771 39.505 81.0255C39.1691 81.227 38.8332 81.3614 38.4973 81.563C35.6755 82.9739 35.6755 82.9067 32.6521 81.9661C29.0241 80.7568 25.4633 79.5474 22.0369 78.0022C20.1557 77.0616 18.3417 76.2553 16.5948 74.6429Z" fill="white"/>
<path fill-rule="evenodd" clip-rule="evenodd" d="M53.4795 39.8409C53.3451 38.43 53.2108 37.0863 53.0764 35.8098C53.0092 35.138 53.278 34.6677 53.6139 34.1974C54.017 33.6599 54.4873 33.1896 54.8904 32.7193C54.9576 32.5849 54.9576 32.249 54.8232 32.1818C54.6888 32.0474 54.4201 31.9803 54.2185 32.0474C53.7482 32.249 53.2779 32.5177 52.7405 32.7865C52.3374 32.249 52.203 31.6443 52.4717 31.1069C52.6733 30.5694 53.1436 30.0991 53.5467 29.7631C54.6888 28.9569 55.8982 29.0913 56.7044 30.0319C57.5778 31.0397 57.9137 32.3162 57.5778 33.5927C57.0403 36.0114 55.9654 38.1613 54.017 39.8409C54.017 39.7738 53.8154 39.7738 53.4795 39.8409Z" fill="white"/>
<path fill-rule="evenodd" clip-rule="evenodd" d="M8.73416 35.0707C9.74194 36.1457 10.6825 37.1535 11.6903 38.2956C11.7575 39.169 12.2278 40.3112 11.9591 41.5877C10.6825 41.6549 9.74194 41.1846 9.0029 40.3784C7.52482 38.6987 7.05453 36.7504 7.39045 34.6004C7.52482 33.8614 7.92794 33.1896 8.5326 32.7193C9.54038 31.913 11.0185 32.4505 11.22 33.7942C11.2872 34.3317 11.22 34.9364 11.22 35.4739C10.3466 35.4067 9.80912 33.9286 8.73416 35.0707Z" fill="white"/>
<path fill-rule="evenodd" clip-rule="evenodd" d="M16.7963 81.6301C16.7291 81.9661 16.662 82.6379 16.4604 83.2426C16.326 83.7129 16.0573 84.1832 15.3854 84.1832C14.848 84.1832 14.3777 83.7129 14.3105 82.9738C14.2433 82.2348 14.3777 81.4958 14.512 80.8239C14.6464 80.2192 15.3183 79.8833 15.8557 79.9505C16.4604 80.0849 16.7963 80.5552 16.7963 81.6301Z" fill="white"/>
<path fill-rule="evenodd" clip-rule="evenodd" d="M23.5149 85.7285C23.4478 85.9972 23.3134 86.6019 23.1118 87.1393C22.9775 87.5425 22.5743 88.0128 22.104 87.8112C21.7009 87.6768 21.365 87.3409 21.1635 87.005C20.7603 86.3331 20.8275 85.5941 21.1635 84.855C21.4322 84.2504 21.9697 83.9144 22.5743 84.0488C23.179 84.1832 23.5149 84.7207 23.5149 85.7285Z" fill="white"/>
<path fill-rule="evenodd" clip-rule="evenodd" d="M46.5594 84.7207C46.6266 84.3176 46.6938 83.8473 46.9626 83.377C47.0297 83.1755 47.3657 82.9739 47.6344 82.9067C48.0375 82.8395 48.3734 83.1083 48.5078 83.4442C48.9109 84.3848 48.9109 85.3254 48.5078 86.1988C48.3734 86.5347 48.0375 86.8707 47.6344 86.7363C47.2985 86.6691 46.9626 86.4004 46.8282 86.1316C46.5594 85.7957 46.6266 85.3254 46.5594 84.7207Z" fill="white"/>
<path fill-rule="evenodd" clip-rule="evenodd" d="M52.4718 88.3487C52.6062 87.8784 52.7405 87.4081 52.9421 86.9378C53.2108 86.3331 54.0171 86.266 54.4202 86.7362C55.092 87.4753 55.092 89.0877 54.353 89.7596C53.9499 90.1627 53.0765 90.0283 52.8077 89.4908C52.6062 89.0877 52.6062 88.7518 52.4718 88.3487Z" fill="white"/>
<path fill-rule="evenodd" clip-rule="evenodd" d="M53.0093 80.085C52.9421 80.3537 52.9421 80.824 52.7405 81.2271C52.6062 81.4959 52.203 81.7646 51.8671 81.8318C51.3968 81.9662 50.9265 81.6302 50.8593 81.1599C50.725 80.5553 50.6578 79.8834 50.725 79.2116C50.7922 78.6069 51.3968 78.2038 52.0015 78.271C52.539 78.3382 52.8749 78.7413 53.0093 79.2788C53.0093 79.4803 53.0093 79.6819 53.0093 80.085Z" fill="white"/>
<path fill-rule="evenodd" clip-rule="evenodd" d="M60.6011 82.9068C60.6011 84.1161 60.2652 84.7208 59.7277 84.8551C59.1231 84.9895 58.4512 84.452 58.3168 83.4442C58.2497 82.9068 58.2497 82.2349 58.384 81.6974C58.5184 81.0256 59.5934 80.824 59.9965 81.4287C60.2652 81.9662 60.4668 82.638 60.6011 82.9068Z" fill="white"/>
<path fill-rule="evenodd" clip-rule="evenodd" d="M13.5042 89.6924C13.5042 89.894 13.4371 90.2299 13.3699 90.5658C13.2355 91.1033 12.6308 91.4393 12.1605 91.3721C11.6902 91.3049 11.0856 90.8346 11.0856 90.3643C11.0856 89.894 11.2199 89.3565 11.4215 88.8862C11.6231 88.4159 12.2949 88.1472 12.698 88.2815C13.1683 88.4159 13.4371 88.8862 13.5042 89.6924Z" fill="white"/>
<path fill-rule="evenodd" clip-rule="evenodd" d="M36.6832 90.4314C36.616 90.7674 36.616 91.2377 36.4144 91.5064C36.2129 91.7751 35.877 92.0439 35.541 92.0439C35.2723 92.0439 34.8692 91.7751 34.6676 91.5064C34.2645 90.8345 34.2645 90.0955 34.5332 89.3565C34.6676 88.8862 35.0035 88.6174 35.4738 88.6174C36.0113 88.6174 36.2801 88.8862 36.4144 89.3565C36.5488 89.6924 36.616 90.0283 36.6832 90.4314Z" fill="white"/>
<path fill-rule="evenodd" clip-rule="evenodd" d="M38.9003 86.4003C38.9675 86.0644 39.0346 85.6613 39.169 85.2582C39.3706 84.855 39.7065 84.5863 40.1768 84.5863C40.7143 84.6535 40.983 84.9894 41.0502 85.4597C41.1846 86.1987 41.1174 86.9378 40.7143 87.6096C40.4455 88.0127 40.0424 88.2815 39.5721 88.0799C39.3034 87.9456 39.1018 87.5425 38.9675 87.2737C38.9003 87.005 38.9675 86.7362 38.9003 86.4003Z" fill="white"/>
<path fill-rule="evenodd" clip-rule="evenodd" d="M30.5022 90.7674C30.5022 90.9018 30.435 91.3049 30.3006 91.5736C30.0991 92.0439 29.6959 92.2455 29.2256 92.1111C28.8897 92.0439 28.4866 91.7752 28.4194 91.5065C28.2851 90.969 28.2851 90.3643 28.3522 89.7596C28.4194 89.2222 28.9569 88.8862 29.4944 88.8862C29.9647 88.8862 30.435 89.3565 30.5022 89.894C30.5022 90.0956 30.5022 90.3643 30.5022 90.7674Z" fill="white"/>
<path fill-rule="evenodd" clip-rule="evenodd" d="M9.00289 81.6301C9.27163 81.8989 9.74193 82.1676 9.80911 82.5035C10.0107 83.3098 9.74193 84.116 9.20444 84.7878C8.9357 85.1238 8.26385 85.0566 8.06229 84.7206C7.592 83.9816 7.65918 82.6379 8.26385 82.0332C8.46541 81.8317 8.66696 81.7645 9.00289 81.6301Z" fill="white"/>
<path fill-rule="evenodd" clip-rule="evenodd" d="M30.3678 84.8551C30.1663 85.2582 30.0319 85.6613 29.7631 85.9972C29.6288 86.1988 29.2257 86.3331 28.9569 86.266C28.6882 86.1988 28.4194 85.9972 28.3523 85.7285C28.0163 84.9894 28.1507 84.2504 28.621 83.6457C28.7554 83.4442 29.1585 83.2426 29.36 83.3098C29.696 83.377 29.9647 83.6457 30.1663 83.9145C30.3678 84.1832 30.3006 84.5863 30.3678 84.8551Z" fill="white"/>
<path fill-rule="evenodd" clip-rule="evenodd" d="M20.626 20.6259H20.6932C20.6932 20.6931 20.626 20.6259 20.626 20.6259C20.626 20.6259 20.626 20.5587 20.626 20.6259Z" fill="white"/>
<path fill-rule="evenodd" clip-rule="evenodd" d="M45.8876 60.7355C45.6189 61.273 45.4173 61.6089 45.2829 61.9449C44.4095 64.0276 44.4095 64.0276 42.5955 65.0354C42.9986 66.1776 43.7377 67.1181 44.5439 67.9916C46.022 69.604 47.7688 70.8805 49.7843 71.6867C51.464 72.3586 53.1436 72.9633 54.8232 73.5007C59.9965 75.2476 63.1542 78.8084 64.6995 83.9145C65.6401 87.0722 66.2447 90.2971 66.5807 93.522C66.5807 93.7235 66.5135 93.9251 66.5135 94.1266C64.6995 95.4032 62.6839 95 60.8699 94.9329C60.3324 94.4626 60.4668 93.9923 60.3996 93.522C60.3324 93.186 60.3324 92.7829 60.2652 92.447C60.1309 91.9095 59.6606 91.4392 59.1903 91.4392C58.5856 91.4392 58.1825 91.8423 58.1153 92.3798C57.9138 93.186 57.8466 93.9923 57.7794 94.7313C55.831 95.0672 49.7172 95 47.9703 94.6641C47.836 93.7907 47.7016 92.9173 47.5 92.0439C47.3657 91.5736 47.0297 91.3049 46.5594 91.3049C46.022 91.3049 45.7532 91.708 45.6189 92.1111C45.4845 92.9173 45.4173 93.7235 45.3501 94.6641C45.0142 94.7313 44.6111 94.8657 44.208 94.8657C37.4222 94.8657 30.6365 94.8657 23.918 94.8657C23.5821 94.8657 23.179 94.7985 22.7087 94.7985C22.6415 94.1938 22.5743 93.6563 22.4399 93.1189C22.3056 92.5142 21.9024 92.1111 21.4321 92.1111C20.9618 92.1111 20.4916 92.5142 20.3572 93.1189C20.2228 93.5892 20.2228 94.1266 20.1556 94.6641C18.476 95.0672 10.3466 95.1344 8.06227 94.7313C7.99509 94.1938 7.99509 93.5892 7.86072 93.0517C7.79353 92.7157 7.4576 92.3798 7.18886 92.3126C6.71857 92.1111 6.24827 92.3126 6.04671 92.7829C5.77797 93.3876 5.57642 93.9923 5.30768 94.7985C4.36708 95.1344 3.29212 95 2.28434 94.8657C2.14997 94.6641 2.0156 94.5297 2.0156 94.3954C1.81404 91.372 1.88123 88.2815 2.41871 85.2582C2.68745 83.7129 3.29212 82.2348 3.96397 80.8911C4.63582 79.5474 5.6436 78.4725 6.92012 77.5991C8.59975 76.4569 10.3466 75.5163 12.2278 74.7773C14.3105 73.971 16.3261 73.0976 18.4088 72.2242C20.4244 71.418 22.2384 70.2087 23.7836 68.6634C24.5899 67.8572 25.2617 67.051 25.6648 65.7744C25.1945 65.5057 24.657 65.237 24.1196 64.9682C23.5821 65.3713 23.1118 65.7073 22.6415 66.0432C20.9618 67.1853 20.0884 67.1181 18.476 65.7744C18.3416 65.7073 18.2073 65.5729 18.1401 65.5057C17.5354 65.5057 17.5354 66.0432 17.2667 66.3119C16.9307 66.6478 16.662 66.9838 16.3261 67.2525C14.6464 68.5962 13.1012 68.2603 12.1606 66.3791C11.8918 65.7744 11.6231 65.1698 11.22 64.3636C10.7497 64.901 10.3466 65.237 10.0778 65.5729C9.20442 66.715 8.19664 67.4541 6.65138 67.1853C5.03893 66.9166 4.03115 65.976 3.49367 64.4307C2.75463 62.0121 2.41871 59.5262 2.62026 56.9732C2.68745 54.6889 2.75463 52.5389 2.889 50.389C2.95619 49.1125 2.75463 47.836 2.0156 46.761C0.537519 44.6783 0.201593 42.2596 0.0672221 39.7737C-0.201519 35.2723 0.470334 30.9053 1.88123 26.6054C2.48589 24.7914 3.09056 22.9102 3.69523 21.0962C5.03893 17.4682 6.78575 14.0418 9.07005 10.8169C10.2122 9.20443 11.4887 7.79354 13.1012 6.65139C14.9824 5.30768 16.3261 4.97175 18.5432 5.10612C22.5071 1.88123 27.0757 0.201598 32.249 4.23891e-05C36.2801 -0.134328 40.1097 0.537525 43.6705 2.28434C44.8126 2.82182 45.9548 3.42649 47.0969 3.89679C50.3218 5.24049 53.0764 7.32324 55.5623 9.60754C58.5184 12.295 60.4668 15.6542 60.8027 19.6853C61.0715 23.3805 62.4152 26.7398 63.8933 30.0991C64.4307 31.3084 64.901 32.5849 65.1026 33.9286C65.6401 38.0269 65.7073 42.1252 64.6323 46.0891C64.0948 47.9703 64.0948 49.7172 64.9682 51.464C65.3041 52.1358 65.4385 52.8749 65.7073 53.5467C66.6479 56.0326 66.4463 58.5184 65.9088 61.0043C65.6401 62.1464 64.901 62.9527 63.8933 63.5573C62.8183 64.2292 61.7433 64.162 60.8027 63.2886C60.3324 62.8183 59.9293 62.2808 59.3918 61.6761C58.9215 62.4824 58.6528 63.087 58.3169 63.6245C57.645 64.5651 56.7044 64.7667 55.831 64.0276C55.092 63.423 54.4873 62.6167 53.8155 61.8777C53.1436 61.9449 52.9421 62.5495 52.6061 62.9527C50.389 65.5729 47.9032 64.4979 46.6938 62.2136C46.4251 61.8777 46.2235 61.4074 45.8876 60.7355ZM29.2256 19.0135C28.4866 19.0807 28.1507 19.7525 27.6804 20.1556C26.6054 21.0962 25.6648 22.104 24.5899 23.0446C24.0524 23.5821 23.3805 23.918 22.6415 23.9852C21.6337 24.0524 20.8947 23.5149 20.7603 22.5071C20.6931 21.8353 20.6931 21.1634 20.6259 20.5587L20.7603 20.6259H20.6931C19.8197 21.6337 18.9463 22.6415 18.0729 23.6493C16.3261 25.8664 14.6464 28.1507 12.4965 29.9647C12.4965 30.8381 12.4293 31.6443 12.4965 32.4505C12.8996 35.6082 13.2355 38.8331 13.7058 41.9908C14.1089 44.6111 14.7808 47.2313 15.7214 49.7843C16.3932 51.6655 17.4682 53.278 19.1478 54.3529C21.7681 56.0998 24.5899 57.5106 27.6804 58.1153C33.1224 59.2575 38.3628 58.5184 43.133 55.4951C44.3423 54.7561 45.4845 53.8826 46.6266 53.0764C48.6422 51.5312 49.9859 49.5156 50.5906 47.0297C51.1952 44.5439 51.5983 42.058 51.5983 39.505C51.5983 37.0863 51.1952 34.7348 50.8593 32.3834C50.7249 31.5771 50.5906 30.8381 49.7843 30.3006C49.4484 30.0991 49.3812 29.5616 49.1797 29.1585C48.575 27.8819 48.0375 26.6054 47.5 25.3289C45.6189 25.6648 45.5517 25.6648 44.5439 24.3211C44.208 23.918 43.9392 23.4477 43.7377 22.9774C43.2002 21.9024 42.7299 20.8275 42.2596 19.7525C42.1252 19.4166 41.9237 19.1478 41.5877 18.6776C40.9831 19.6853 40.4456 20.4916 39.9753 21.2978C39.5722 21.9696 39.1019 22.7087 38.6316 23.3805C38.1613 24.0524 37.5566 24.4555 36.7504 24.1867C36.0114 23.918 35.9442 23.2462 35.877 22.5071C35.877 21.9696 36.0785 21.365 35.6082 20.7603C35.0036 21.2978 34.5333 21.7681 33.9958 22.1712C33.4583 22.5743 32.988 23.0446 32.4505 23.4477C30.6365 24.5227 28.9569 23.6493 28.8897 21.4993C28.8897 21.1634 28.9569 20.7603 29.0241 20.4244C29.0241 20.0213 29.1585 19.4838 29.2256 19.0135V18.8791V19.0135ZM16.5948 74.6429C18.3416 76.2553 20.2228 76.9944 22.0368 77.8678C25.4633 79.4131 29.0913 80.6224 32.6521 81.8317C35.6754 82.8395 35.6754 82.9067 38.4972 81.4286C38.8331 81.2942 39.1691 81.0927 39.505 80.8911C43.2002 78.9428 46.8282 76.9944 50.5234 75.046C50.8593 74.9116 51.128 74.6429 51.5983 74.307C50.7921 73.9039 50.2546 73.6351 49.65 73.3664C47.5672 72.493 45.686 71.3508 44.0736 69.7384C41.5205 67.2525 40.0425 64.2964 39.9081 60.6684C39.9081 60.3324 39.8409 59.9293 39.7737 59.459C37.8925 59.7949 36.0785 60.1981 34.2645 60.3324C32.3833 60.4668 30.435 60.3324 28.4194 60.3324C28.2179 61.4074 28.0835 62.348 27.9491 63.2886C27.4788 66.1104 26.2023 68.4618 23.9852 70.343C22.5071 71.6196 20.8947 72.6945 19.0807 73.4336C18.3416 73.9039 17.6026 74.2398 16.5948 74.6429ZM53.4795 39.8409C53.8826 39.7737 54.017 39.8409 54.1514 39.7065C56.0998 38.0941 57.1747 35.9442 57.7122 33.4583C57.9809 32.1818 57.7122 30.9725 56.8388 29.8975C56.0326 28.9569 54.8232 28.8225 53.6811 29.6288C53.2108 29.9647 52.8077 30.435 52.6061 30.9725C52.4046 31.4428 52.5389 32.1146 52.8749 32.6521C53.4123 32.3834 53.8826 32.1146 54.3529 31.9131C54.4873 31.8459 54.8232 31.9131 54.9576 32.0474C55.092 32.1818 55.092 32.5177 55.0248 32.5849C54.6217 33.1224 54.1514 33.5927 53.7483 34.063C53.3452 34.5333 53.0764 35.0708 53.2108 35.6754C53.2108 37.0863 53.278 38.3628 53.4795 39.8409ZM8.73413 35.0708C9.87628 33.9286 10.3466 35.4739 11.2872 35.4067C11.2872 34.8692 11.3544 34.2645 11.2872 33.7271C11.0856 32.4505 9.60753 31.8459 8.59975 32.6521C7.99509 33.1224 7.59198 33.7271 7.4576 34.5333C7.12168 36.6832 7.59197 38.6316 9.07005 40.3112C9.80909 41.1846 10.8169 41.6549 12.0262 41.5205C12.2949 40.244 11.8246 39.1691 11.7575 38.2285C10.6153 37.0863 9.7419 36.1457 8.73413 35.0708ZM16.7964 81.6302C16.7964 80.5552 16.4604 80.0849 15.923 80.0177C15.3855 79.9505 14.7136 80.2865 14.5792 80.8911C14.3777 81.563 14.3105 82.302 14.3777 83.0411C14.4449 83.7801 14.9152 84.2504 15.4527 84.2504C16.0573 84.2504 16.3261 83.7801 16.5276 83.3098C16.662 82.5708 16.7292 81.9661 16.7964 81.6302ZM23.5149 85.7285C23.5149 84.6535 23.179 84.1832 22.6415 84.0488C22.0368 83.9817 21.4993 84.2504 21.2306 84.8551C20.8947 85.5941 20.8275 86.3331 21.2306 87.005C21.4321 87.3409 21.8353 87.6768 22.1712 87.8112C22.6415 87.9456 22.9774 87.5425 23.179 87.1394C23.3805 86.6019 23.4477 86.0644 23.5149 85.7285ZM46.5594 84.7207C46.6266 85.3254 46.6266 85.7957 46.8282 86.1316C46.9626 86.4003 47.2985 86.6691 47.6344 86.7363C48.0375 86.8706 48.3063 86.5347 48.5078 86.1988C48.9109 85.2582 48.9109 84.3176 48.5078 83.4442C48.3734 83.1082 48.0375 82.8395 47.6344 82.9067C47.3657 82.9739 47.0297 83.1754 46.9626 83.377C46.6938 83.8473 46.6266 84.3176 46.5594 84.7207ZM52.4718 88.3487C52.6061 88.7518 52.6733 89.1549 52.8077 89.4237C53.0764 89.9612 53.8826 90.0955 54.3529 89.6924C55.092 89.0206 55.1592 87.4081 54.4201 86.6691C54.017 86.1988 53.2108 86.3331 52.9421 86.8706C52.6733 87.3409 52.6061 87.8784 52.4718 88.3487ZM53.0092 80.0849C53.0092 79.6818 52.9421 79.4802 52.9421 79.2787C52.8749 78.674 52.4718 78.3381 51.9343 78.2709C51.3296 78.2037 50.7249 78.6068 50.6578 79.2115C50.5906 79.8834 50.6577 80.5552 50.7921 81.1599C50.9265 81.563 51.3296 81.8989 51.7999 81.8317C52.1358 81.7645 52.5389 81.4958 52.6733 81.2271C52.9421 80.8239 52.9421 80.3536 53.0092 80.0849ZM60.6012 82.9067C60.4668 82.6379 60.3324 81.9661 59.9965 81.4286C59.5934 80.8239 58.5856 81.0255 58.3841 81.6974C58.2497 82.2348 58.2497 82.8395 58.3169 83.4442C58.4512 84.3848 59.0559 84.9894 59.7278 84.8551C60.2652 84.7207 60.6012 84.1832 60.6012 82.9067ZM13.5043 89.6924C13.5043 88.8862 13.1684 88.4159 12.6981 88.2815C12.2949 88.1471 11.6231 88.4159 11.4215 88.8862C11.22 89.3565 11.0856 89.894 11.0856 90.3643C11.0856 90.8346 11.6231 91.3049 12.1606 91.372C12.6309 91.4392 13.1684 91.1033 13.3699 90.5658C13.4371 90.2971 13.4371 89.894 13.5043 89.6924ZM36.6832 90.4314C36.616 90.0955 36.5488 89.6924 36.4817 89.3565C36.3473 88.8862 36.0114 88.6174 35.5411 88.6174C35.0036 88.6174 34.7348 88.9534 34.6005 89.3565C34.3317 90.0955 34.3989 90.8346 34.7348 91.5064C34.8692 91.7751 35.2723 92.0439 35.6082 92.0439C35.877 92.0439 36.2801 91.7751 36.4817 91.5064C36.616 91.1705 36.616 90.7674 36.6832 90.4314ZM38.9003 86.4003C38.9675 86.7363 38.9003 87.005 38.9675 87.1394C39.1019 87.4753 39.3034 87.8112 39.5722 87.9456C40.0425 88.1471 40.4456 87.8784 40.7143 87.4753C41.1174 86.8034 41.2518 86.0644 41.0503 85.3254C40.9831 84.8551 40.7143 84.5191 40.1768 84.4519C39.6394 84.3848 39.3034 84.7207 39.1691 85.1238C39.0347 85.5941 38.9675 86.0644 38.9003 86.4003ZM30.5022 90.7674C30.5022 90.2971 30.5022 90.0955 30.5022 89.894C30.435 89.3565 29.9647 88.8862 29.4944 88.8862C29.0241 88.8862 28.4194 89.2893 28.3522 89.7596C28.285 90.3643 28.285 90.9689 28.4194 91.5064C28.4866 91.7751 28.8897 92.0439 29.2256 92.1111C29.6959 92.2455 30.099 92.0439 30.3006 91.5736C30.435 91.3049 30.435 90.9017 30.5022 90.7674ZM9.00287 81.6302C8.66694 81.7645 8.46538 81.8317 8.26383 81.9661C7.65916 82.5708 7.52479 83.9145 8.06227 84.6535C8.26383 84.9894 9.00287 85.0566 9.20442 84.7207C9.7419 84.0488 10.0106 83.2426 9.80909 82.4364C9.7419 82.1005 9.27161 81.8989 9.00287 81.6302ZM30.3678 84.8551C30.3006 84.5191 30.3678 84.1832 30.1662 83.9817C29.9647 83.7129 29.6959 83.4442 29.36 83.377C29.1585 83.3098 28.8225 83.5114 28.621 83.7129C28.0835 84.3176 28.0163 85.0566 28.3522 85.7957C28.4194 85.9972 28.7553 86.266 28.9569 86.3331C29.2256 86.4003 29.5616 86.266 29.7631 86.0644C30.0319 85.7285 30.1662 85.2582 30.3678 84.8551Z" fill="#222B6C"/>
<path fill-rule="evenodd" clip-rule="evenodd" d="M34.4661 40.3112C34.2646 40.1096 34.1302 39.8409 33.9287 39.6393C31.7115 37.5566 31.3756 34.8692 31.7115 32.0474C31.7115 31.8458 31.7787 31.5771 31.9131 31.4427C32.1147 31.2412 32.3162 31.0396 32.585 30.9724C32.6521 30.9724 32.9209 31.2412 32.9881 31.4427C33.1224 32.0474 33.1224 32.652 33.1896 33.1895C33.2568 33.8614 33.324 34.5332 33.4584 35.2051C33.7271 36.5488 34.2646 37.6909 35.4067 38.6315C36.6833 39.7065 36.7504 40.5127 35.8098 41.9236C35.0036 43.133 33.9958 44.0735 32.6521 44.6782C32.3162 44.8126 31.9131 44.8126 31.5772 44.8126C31.3756 44.8126 31.1741 44.611 31.1069 44.4095C31.0397 44.2079 31.0397 43.9392 31.1741 43.8048C31.51 43.4689 31.9803 43.133 32.3834 42.797C33.1224 42.1252 34.063 41.5205 34.4661 40.3112Z" fill="#222B6C"/>
<path fill-rule="evenodd" clip-rule="evenodd" d="M38.2284 49.2468C38.3628 50.053 37.9597 50.389 37.4894 50.5905C36.4816 51.0608 35.4738 51.5311 34.3989 51.7999C31.4427 52.4045 28.6881 52.1358 26.2695 50.053C26.0007 49.8515 25.732 49.5156 25.5976 49.2468C25.5304 49.1125 25.5304 48.7765 25.6648 48.6422C25.7992 48.5078 26.0679 48.3734 26.2023 48.4406C26.6726 48.6422 27.1429 48.8437 27.6132 49.1125C29.8303 50.5233 32.1818 50.6577 34.6676 49.9859C35.541 49.7843 36.3472 49.4484 37.2207 49.2468C37.5566 49.1796 37.8925 49.2468 38.2284 49.2468Z" fill="#222B6C"/>
<path fill-rule="evenodd" clip-rule="evenodd" d="M42.9987 34.8692C42.9987 35.9442 42.7971 36.5489 42.2596 37.0864C41.655 37.6238 40.7144 37.4895 40.3113 36.8848C39.7066 35.9442 39.9082 33.9286 40.6472 33.1224C41.1175 32.6521 42.0581 32.6521 42.394 33.2568C42.7299 33.7943 42.9315 34.5333 42.9987 34.8692Z" fill="#222B6C"/>
<path fill-rule="evenodd" clip-rule="evenodd" d="M21.7009 36.6832C21.8353 35.7426 21.9697 34.8692 22.6415 34.1974C23.179 33.6599 24.1868 33.7943 24.5227 34.4661C25.1274 35.6083 24.7243 37.2879 23.7165 38.0941C22.9774 38.6988 22.104 38.43 21.8353 37.4895C21.7681 37.2207 21.7681 36.8848 21.7009 36.6832Z" fill="#222B6C"/>
<path fill-rule="evenodd" clip-rule="evenodd" d="M23.0446 26.068C23.3133 26.1352 23.5149 26.1352 23.7165 26.2024C23.918 26.3367 24.1196 26.5383 24.1196 26.6727C24.1196 26.807 23.918 27.0086 23.7836 27.2101C23.7165 27.2773 23.6493 27.2773 23.5821 27.2773C21.9025 27.4789 20.2228 27.9492 18.6776 28.621C18.5432 28.6882 18.2073 28.5538 18.1401 28.4195C18.0729 28.2851 18.0729 28.0164 18.2073 27.8148C18.2744 27.6133 18.476 27.4789 18.6776 27.3445C19.9541 26.5383 21.4993 26.2024 23.0446 26.068Z" fill="#222B6C"/>
<path fill-rule="evenodd" clip-rule="evenodd" d="M43.3345 26.6054C43.2002 26.6726 43.133 26.8741 42.9986 26.8741C41.5877 26.8741 40.1768 26.8741 38.7659 26.8741C38.6316 26.8741 38.3628 26.6054 38.3628 26.471C38.2956 26.3366 38.43 26.0007 38.6316 25.9335C40.1096 25.3288 41.6549 25.2617 43.133 26.0679C43.2673 26.1351 43.3345 26.2694 43.3345 26.4038C43.3345 26.471 43.3345 26.5382 43.3345 26.6054Z" fill="#222B6C"/>
</g>
<defs>
<clipPath id="clip0_239_789">
<rect width="66.5806" height="95" fill="white"/>
</clipPath>
</defs>
</svg>
