<svg width="59" height="95" viewBox="0 0 59 95" fill="none" xmlns="http://www.w3.org/2000/svg">
<g clip-path="url(#clip0_166_175)">
<path fill-rule="evenodd" clip-rule="evenodd" d="M48.3092 93.0151C51.1823 92.4676 54.0555 91.9885 56.9286 91.7147C56.795 90.9618 56.7282 90.2089 56.6614 89.3876C56.5946 88.7716 56.5277 88.0872 56.4609 87.4712C54.4564 87.1974 50.0464 87.5396 48.2423 88.0187C47.9083 89.2507 48.3092 90.5512 48.3092 91.8516C48.2424 92.3307 48.3092 92.6729 48.3092 93.0151Z" fill="white"/>
<path fill-rule="evenodd" clip-rule="evenodd" d="M15.3013 93.8365C20.8471 94.4525 26.393 95 31.9389 94.9316C37.017 94.8631 41.8947 94.1787 46.8392 93.2205C46.7724 92.8098 46.7724 92.3992 46.7724 91.9885C46.6387 90.7565 46.5719 89.593 46.4383 88.2241C44.9683 87.9503 43.6319 88.4979 42.2956 88.4979C40.9592 88.4979 39.5561 88.5663 38.2197 88.6347C36.8834 88.7716 35.547 88.977 34.1438 89.1139C33.8766 90.4827 34.1438 91.6463 34.1438 92.8783C34.1438 93.8365 33.9434 94.3156 33.5425 94.2471C32.9411 94.1103 32.9411 93.5627 32.8743 93.0836C32.7407 91.8516 32.607 90.6196 32.4734 89.3192C30.6693 88.7032 28.8652 88.8401 27.0612 88.9085C25.2571 88.9085 23.3862 88.977 21.5821 89.0454C21.1144 90.0721 21.3148 91.0987 21.3148 92.0569C21.3148 92.536 21.4485 93.0152 21.3817 93.4943C21.3817 93.6312 21.0476 93.8365 20.8471 93.9049C20.7135 93.9734 20.513 93.8365 20.4462 93.768C20.2458 93.3574 20.0453 92.8783 20.0453 92.3992C19.9785 91.2356 19.9117 90.1405 19.9117 89.0454C17.4394 88.2241 11.6263 87.8134 9.28766 88.2925C8.95357 89.9352 9.08721 91.6463 9.28766 93.2889C11.359 93.4258 13.3635 93.6312 15.3013 93.8365Z" fill="white"/>
<path fill-rule="evenodd" clip-rule="evenodd" d="M7.9513 90.4143C7.88449 89.5929 7.9513 88.7716 7.9513 87.8818C6.01359 87.3343 4.07588 86.7867 2.00453 86.2392C1.53681 88.4294 1.93771 90.6196 1.80408 92.7414C3.4077 92.7414 5.07814 92.9467 6.68177 93.0836C7.21631 93.152 7.75085 93.152 8.21858 93.2205C8.08494 92.2622 8.01812 91.3725 7.9513 90.4143Z" fill="white"/>
<path fill-rule="evenodd" clip-rule="evenodd" d="M31.0702 11.9092C31.4711 12.7306 31.8052 13.2097 32.0057 13.6888C34.812 19.4381 38.5538 24.5029 43.0974 28.9517C44.0996 29.91 45.1019 30.8682 45.9705 31.8948C46.7055 32.7162 47.4405 33.4006 48.5764 33.4006C48.9105 34.4273 48.7101 35.317 48.6432 36.2068C48.3092 38.8077 47.9751 41.4085 47.5742 43.9409C47.1733 46.7471 46.1042 49.2796 44.7678 51.7435C43.6987 53.7968 42.0951 55.4395 40.0906 56.5346C35.547 59.2039 30.6693 60.0937 25.5243 58.9301C24.5221 58.7248 23.5198 58.3826 22.5175 58.1773C19.1767 57.3559 16.9717 55.1657 15.5685 52.0173C14.3658 49.348 13.564 46.5418 13.0294 43.5987C12.4281 40.3819 12.2276 37.0966 12.1608 33.8113C12.094 32.7846 12.2276 31.8948 13.0963 31.2104C13.564 30.8682 13.8981 30.1837 14.1653 29.6362C15.7021 26.6931 17.8403 24.366 20.513 22.3811C22.8516 20.67 25.0566 18.7536 27.1948 16.8372C28.0634 16.0843 28.6648 15.1261 29.3998 14.2363C29.9343 13.5519 30.402 12.8675 31.0702 11.9092ZM27.128 39.5605C29.4666 38.0548 29.7338 37.7126 29.8007 34.9748C29.8675 33.6744 29.8007 32.3739 29.8007 31.0735C29.8007 30.6628 29.8007 30.2522 29.667 29.8415C29.6002 29.5677 29.3329 29.2255 29.0657 29.2255C28.8652 29.2255 28.4643 29.4993 28.3975 29.7731C28.2639 30.4575 28.2639 31.2104 28.197 31.9633C28.1302 33.6059 28.197 35.2486 27.5289 36.8912C27.128 37.165 26.5934 37.3703 26.1925 37.7126C25.2571 38.4654 24.923 39.6974 25.4575 40.7925C26.1257 42.1614 26.9943 43.2565 28.2639 44.0094C28.8652 44.3516 29.4666 44.4885 30.0679 44.2832C30.5357 44.1463 30.9366 43.9409 30.8698 43.1196C29.2661 42.5721 27.7293 41.6139 27.128 39.5605ZM36.3488 48.2529C36.0815 48.3898 35.6806 48.5267 35.4134 48.732C34.2774 49.348 33.2084 49.964 32.0057 50.5115C30.5357 51.196 29.0657 51.1275 27.5957 50.3747C26.8607 50.0324 26.1925 49.6218 25.4575 49.2796C25.1234 49.0742 24.7225 48.8689 24.3884 48.8005C24.188 48.732 23.8539 48.8689 23.7871 49.0058C23.6534 49.1427 23.7203 49.4849 23.8539 49.6902C25.0566 51.196 26.7271 52.0858 28.4643 52.6333C30.8029 53.3862 35.0793 51.812 36.4156 49.7587C36.6829 49.2796 36.8833 48.8005 36.3488 48.2529ZM38.6206 36.2068C38.487 35.7277 38.4201 35.1117 38.1529 34.6326C38.0192 34.3588 37.5515 34.085 37.2174 34.085C36.8833 34.085 36.4156 34.3588 36.282 34.6326C35.7474 35.6592 35.7474 36.8228 36.4156 37.8494C36.6161 38.1232 37.0838 38.3285 37.4179 38.3285C37.752 38.3285 38.1529 37.9863 38.2865 37.7126C38.487 37.2334 38.487 36.7543 38.6206 36.2068ZM22.7848 35.933C22.6512 35.5224 22.5844 34.9748 22.3839 34.4957C22.1835 34.0166 21.7157 33.7428 21.248 33.8113C20.7135 33.8797 20.3126 34.2219 20.2457 34.701C20.1121 35.3855 20.1121 36.1383 20.1789 36.8228C20.2457 37.5757 20.7803 37.9863 21.4485 37.9863C22.1166 37.9863 22.5844 37.5072 22.718 36.8228C22.718 36.6175 22.718 36.3437 22.7848 35.933ZM37.017 26.6247C36.4156 26.6247 36.2152 26.6247 36.0147 26.6931C35.7474 26.83 35.4134 27.0353 35.3465 27.2407C35.2129 27.7198 35.547 27.9935 35.9479 28.062C36.8833 28.1989 37.8188 28.3358 38.7542 28.4042C38.9547 28.4042 39.3556 28.062 39.3556 27.8566C39.3556 27.6513 39.1551 27.1722 38.9547 27.1038C38.2865 26.8984 37.4847 26.7615 37.017 26.6247ZM23.1189 25.8033C22.718 25.5296 22.5175 25.2558 22.2503 25.2558C21.248 25.0505 20.3794 25.4611 19.5107 25.9402C19.2435 26.0771 18.9762 26.3509 18.8426 26.6247C18.7758 26.8984 18.8426 27.2407 18.9094 27.5144C18.9762 27.6513 19.3771 27.6513 19.5107 27.5829C20.3126 27.2407 21.1144 26.8984 21.9162 26.5562C22.3839 26.4193 22.6512 26.1456 23.1189 25.8033Z" fill="white"/>
<path fill-rule="evenodd" clip-rule="evenodd" d="M45.436 79.9424C45.6365 81.3113 45.8369 82.6117 45.9706 83.9121C46.0374 84.7334 46.1042 85.4863 46.171 86.3076C44.0997 87.129 42.0283 86.9921 39.957 87.0605C37.9524 87.0605 36.0147 87.6765 34.077 87.4712C33.5425 85.4863 33.342 81.4481 33.7429 78.9842C34.9456 78.8473 36.2152 79.1895 37.4179 79.1895C38.7543 79.1895 40.0906 79.2579 41.4938 79.2579C42.7633 79.3264 44.0329 79.1895 45.436 79.9424Z" fill="white"/>
<path fill-rule="evenodd" clip-rule="evenodd" d="M31.9389 79.0526C32.0057 79.6002 32.0725 80.0108 32.0725 80.4215C32.1393 82.6801 32.2729 85.0072 32.3398 87.2659C31.0034 87.5397 24.1212 87.6765 21.7157 87.4028C20.8471 86.2392 21.5153 84.8703 21.4485 83.6384C21.4485 82.3379 21.5153 81.0375 21.5821 79.8055C23.3862 79.1895 29.3998 78.7788 31.9389 79.0526Z" fill="white"/>
<path fill-rule="evenodd" clip-rule="evenodd" d="M10.2231 79.1895C13.564 79.3263 16.7044 79.3948 19.8449 79.5317C20.513 80.7637 20.0453 82.0641 20.1121 83.3645C20.1789 84.5965 20.1789 85.7601 19.8449 87.1289C16.3703 86.8552 13.0963 86.5814 9.68857 86.3761C9.35448 83.9121 9.88902 81.7219 10.2231 79.1895Z" fill="white"/>
<path fill-rule="evenodd" clip-rule="evenodd" d="M32.7406 70.7025C32.607 68.9229 32.4066 67.2118 32.2729 65.3639C33.4756 65.1585 34.5447 64.8848 35.6806 64.7479C37.2842 64.5425 38.8211 64.2688 40.3579 63.6528C41.3601 63.2421 41.8278 63.4474 42.2956 64.4741C43.231 66.2536 43.6319 68.1016 43.8992 70.0865C41.2933 70.9763 35.6806 71.3185 32.7406 70.7025Z" fill="white"/>
<path fill-rule="evenodd" clip-rule="evenodd" d="M44.9015 78.026C41.0261 77.41 37.2843 78.0944 33.4088 77.3415C33.0079 75.7673 33.0079 74.2616 33.0748 72.6874C34.8788 72.1398 36.7497 72.5505 38.5538 72.3451C40.3579 72.1398 42.162 72.0029 43.966 71.866C44.6342 73.6456 44.9683 75.8358 44.9015 78.026Z" fill="white"/>
<path fill-rule="evenodd" clip-rule="evenodd" d="M11.8267 71.5238C14.9003 71.9345 17.8403 72.2767 20.9808 72.6873C20.7803 74.5353 20.5798 76.178 20.3794 77.8206C17.974 78.5051 13.2967 78.2997 10.6908 77.4784C10.624 75.4251 10.8913 73.9878 11.8267 71.5238Z" fill="white"/>
<path fill-rule="evenodd" clip-rule="evenodd" d="M47.7746 86.0338C47.5073 83.9805 47.2401 82.0641 46.9728 80.0108C48.376 79.2579 49.7791 79.3264 51.1823 79.2579C52.5187 79.1895 53.855 79.0526 55.2582 78.9841C55.8596 81.1743 56.1936 83.2276 56.1268 85.281C54.5232 85.897 50.581 86.2392 47.7746 86.0338Z" fill="white"/>
<path fill-rule="evenodd" clip-rule="evenodd" d="M19.4439 63.3105C20.4462 63.7212 21.3817 64.1319 22.4507 64.611C21.983 66.8696 21.7826 68.9914 21.1144 71.25C18.1744 71.1131 15.3681 70.7025 12.3613 70.2918C12.3613 69.9496 12.3613 69.6074 12.4949 69.3336C12.6954 68.7176 13.0294 68.1701 13.2967 67.5541C13.7644 66.3905 14.4994 65.5007 15.769 65.0901C16.9049 64.611 18.0408 63.995 19.4439 63.3105Z" fill="white"/>
<path fill-rule="evenodd" clip-rule="evenodd" d="M20.5798 62.147C20.9807 61.3256 21.3148 60.5728 21.6489 59.8199C24.3884 60.4359 26.9943 61.1203 29.7339 61.1888C32.4066 61.2572 34.9456 60.6412 37.6183 59.8199C37.9524 60.2305 38.3533 60.6412 38.6206 61.1203C38.8879 61.531 39.1551 61.9416 39.3556 62.3523C34.5447 64.2687 24.3216 64.5425 20.5798 62.147Z" fill="white"/>
<path fill-rule="evenodd" clip-rule="evenodd" d="M54.8573 77.2731C54.2559 77.4784 53.9219 77.6153 53.6546 77.6153C51.4496 77.8206 49.2446 77.9575 47.0396 78.1628C46.3046 76.6571 45.9037 74.4669 45.8369 71.6607C47.8414 71.1816 49.846 71.0447 51.9841 70.9078C53.4541 72.7558 54.1223 74.8775 54.8573 77.2731Z" fill="white"/>
<path fill-rule="evenodd" clip-rule="evenodd" d="M21.8494 78.026C21.8494 77.2731 21.7826 76.794 21.8494 76.3149C21.983 75.2198 22.1835 74.0562 22.3839 73.0296C23.9207 72.6189 29.1325 72.4136 31.4043 72.6873C31.8052 74.1247 31.8052 75.6304 31.872 77.2046C30.2016 77.8891 28.5311 77.6153 26.8607 77.6837C25.2571 77.8206 23.6534 77.8891 21.8494 78.026Z" fill="white"/>
<path fill-rule="evenodd" clip-rule="evenodd" d="M22.5844 71.3184C22.9185 69.0598 23.2526 67.1434 23.5866 65.2954C25.1903 65.0216 28.7984 65.1585 30.8698 65.5692C31.4043 67.2118 31.2707 68.9914 31.2707 70.8393C29.8675 71.5922 28.3975 71.25 26.9943 71.3184C25.5912 71.3869 24.2548 71.3184 22.5844 71.3184Z" fill="white"/>
<path fill-rule="evenodd" clip-rule="evenodd" d="M8.88675 78.8473C8.61948 81.3797 8.35221 83.6384 8.08494 85.8286C5.94678 86.1708 4.5436 85.897 1.93771 84.4597C1.8709 82.3379 2.2718 80.2162 2.93998 77.9575C3.94224 78.0944 4.87769 78.1629 5.81314 78.2997C6.74859 78.4366 7.68403 78.642 8.88675 78.8473Z" fill="white"/>
<path fill-rule="evenodd" clip-rule="evenodd" d="M10.7576 30.1837C9.889 29.6362 9.22083 29.1571 8.55265 28.8149C8.08493 28.5411 7.6172 28.6095 7.41675 29.2255C8.41901 30.1837 9.4881 31.2104 10.4904 32.1686C10.4904 33.469 10.4904 34.7695 10.4904 36.0699C9.28764 36.6175 8.21856 36.2752 7.28311 35.7277C6.0804 35.1117 5.27858 34.1535 4.81086 32.853C4.34314 31.4157 4.34314 29.9784 4.74404 28.5411C5.01131 27.446 5.61267 26.5562 6.74857 26.3509C8.01811 26.0771 9.08719 26.6247 9.889 27.6513C10.4235 28.3357 10.624 29.1571 10.7576 30.1837Z" fill="white"/>
<path fill-rule="evenodd" clip-rule="evenodd" d="M50.8482 29.5677C50.8482 29.2255 50.8482 28.9517 50.8482 28.6095C50.9819 26.9669 52.786 26.1455 54.3228 27.2406C55.5255 28.062 56.06 29.294 56.2605 30.7313C56.6614 33.7428 54.59 36.549 51.7169 36.8228C50.5142 36.9597 50.1133 36.549 50.0464 35.317C49.9796 33.6744 50.4473 32.3055 51.6501 31.1419C52.3182 30.5259 52.9196 29.9099 53.4541 29.3624C53.2537 28.7464 52.9196 28.678 52.5187 28.8148C51.9841 29.0202 51.3828 29.294 50.8482 29.5677Z" fill="white"/>
<path fill-rule="evenodd" clip-rule="evenodd" d="M6.54813 70.3602C7.9513 70.7024 9.0872 70.9762 10.3567 71.3184C10.0895 72.4135 9.88901 73.3033 9.68856 74.2615C9.48811 75.2197 9.28765 76.1779 9.0872 77.1362C7.14949 77.4784 5.41223 76.8624 3.47452 76.6571C3.74179 74.1246 4.94451 72.2767 6.54813 70.3602Z" fill="white"/>
<path fill-rule="evenodd" clip-rule="evenodd" d="M50.8482 69.1967C48.9773 69.8127 47.3069 70.018 45.5028 69.9496C44.9683 68.4438 44.5674 66.8696 44.1665 65.2954C45.5696 65.3639 45.8369 65.4323 47.5074 66.3905C48.7101 67.0065 49.846 67.8963 50.8482 69.1967Z" fill="white"/>
<path fill-rule="evenodd" clip-rule="evenodd" d="M12.1608 67.1434C11.6931 68.0331 11.2922 68.9229 10.8245 69.8811C9.75537 69.8811 8.88674 69.9496 7.95129 69.1967C9.15401 68.1016 10.4235 67.4171 12.1608 67.1434Z" fill="white"/>
<path fill-rule="evenodd" clip-rule="evenodd" d="M50.8482 29.5677C50.8482 29.6362 50.8483 29.6362 50.7814 29.7046C50.7814 29.6362 50.8482 29.6362 50.8482 29.5677Z" fill="white"/>
<path fill-rule="evenodd" clip-rule="evenodd" d="M7.14949 24.4345C7.14949 24.0239 7.21631 23.4763 7.14949 22.9288C6.94904 21.0123 7.28312 19.1643 7.81767 17.3848C9.28765 12.7306 11.6263 8.55556 15.1008 5.13337C18.308 1.84807 22.1166 0.0685278 26.6602 8.40395e-05C28.2639 8.40395e-05 29.8675 -0.0683598 31.4043 0.410747C32.0057 0.616078 32.6738 0.547634 33.2752 0.479191C33.7429 0.479191 34.2106 0.273859 34.6784 0.205415C37.4179 -0.273691 39.957 0.136972 42.2956 1.71118C43.8324 2.73784 45.3692 3.76449 46.7724 4.99648C50.7814 8.48712 53.0532 13.0044 53.3873 18.4115C53.5209 20.6017 53.3873 22.7919 53.3873 25.0505C57.1291 27.2407 58.4655 29.7731 57.6636 33.2638C57.2627 35.0433 56.3273 36.4122 54.9241 37.4388C53.5209 38.4655 51.9173 38.4655 50.3805 38.5339C49.7792 39.1499 49.9796 39.9713 49.9128 40.6557C49.6455 44.557 48.6433 48.1845 46.8392 51.6752C45.436 54.4814 43.4983 56.6716 40.8256 58.1089C40.4915 58.3142 40.1574 58.5195 39.8233 58.7249C39.7565 58.7933 39.6897 58.8618 39.5561 58.9986C39.6897 59.7515 40.2242 60.3675 40.8256 60.8466C41.6942 61.5311 42.6965 62.0786 43.6988 62.6262C44.9015 63.2422 46.171 63.7213 47.4405 64.2688C50.3805 65.6377 52.5855 67.8279 54.1891 70.6341C55.7927 73.5772 57.0623 76.7256 57.53 80.0793C58.1314 84.186 58.5323 88.361 59 92.673C58.3318 92.8099 57.8641 92.9468 57.3964 93.0152C57.1959 92.7414 57.0623 92.673 57.0623 92.5361C56.9286 91.5095 56.795 90.4144 56.6614 89.3877C56.5946 88.7717 56.5277 88.0873 56.4609 87.4713C54.4564 87.1975 50.0464 87.5397 48.2423 88.0188C47.9083 89.2508 48.3092 90.5512 48.3092 91.8517C48.3092 92.6046 48.376 93.3574 48.3092 94.0419C48.3092 94.3156 47.9751 94.6579 47.7078 94.6579C47.5074 94.6579 47.1065 94.3841 47.0396 94.1103C46.906 93.4259 46.906 92.673 46.8392 91.9201C46.7055 90.6881 46.6387 89.5246 46.5051 88.1557C45.0351 87.8819 43.6988 88.4295 42.3624 88.4295C41.026 88.4295 39.6229 88.4979 38.2865 88.5664C36.9502 88.7033 35.6138 88.9086 34.2106 89.0455C33.9434 90.4144 34.2106 91.5779 34.2106 92.8099C34.2106 93.7681 34.0102 94.2472 33.6093 94.1788C33.0079 94.0419 33.0079 93.4943 32.9411 93.0152C32.8075 91.7832 32.6738 90.5512 32.5402 89.2508C30.7361 88.6348 28.932 88.7717 27.128 88.8401C25.3239 88.8401 23.453 88.9086 21.6489 88.977C21.1812 90.0037 21.3817 91.0303 21.3817 91.9886C21.3817 92.4677 21.5153 92.9468 21.4485 93.4259C21.4485 93.5628 21.1144 93.7681 20.9139 93.8365C20.7803 93.905 20.5798 93.7681 20.513 93.6997C20.3126 93.289 20.1121 92.8099 20.1121 92.3308C20.0453 91.1672 19.9785 90.0721 19.9785 88.977C17.5062 88.1557 11.6931 87.745 9.35447 88.2241C8.95357 89.9352 9.15402 91.7148 9.42129 93.4259C8.88675 94.0419 8.41902 93.6997 8.28539 93.2205C8.08494 92.2623 8.01812 91.3041 7.9513 90.3459C7.88448 89.5246 7.9513 88.7033 7.9513 87.8135C6.01359 87.2659 4.07588 86.7184 2.00453 86.1708C1.5368 88.5664 2.00453 90.8935 1.80408 93.2205C0.601358 93.4943 0.334087 93.4259 0.200452 92.7414C0.133634 92.3308 0.0668163 91.9201 0.0668163 91.5095C-0.066819 86.5131 0.0668162 81.5167 1.40317 76.6571C1.73726 75.562 2.07135 74.4669 2.47225 73.4403C3.47452 70.9763 5.07814 68.923 7.21631 67.4172C9.02038 66.1168 10.9581 65.1586 12.8958 64.3373C14.3658 63.7213 15.8358 63.1053 17.3058 62.3524C18.5753 61.7364 19.6444 60.9151 20.0453 59.3409C19.8448 59.1355 19.6444 58.8618 19.3771 58.7249C16.8381 57.4244 15.2344 55.2342 14.0317 52.6334C12.2276 48.7321 11.4258 44.557 10.8913 40.3135C10.8245 39.6975 10.7576 39.0131 10.6908 38.2602C10.0895 38.1233 9.55492 38.0548 9.02038 37.9864C5.21178 37.4388 2.67271 34.4273 2.87316 30.526C2.87316 29.8416 3.00679 29.2256 3.14043 28.6096C3.54133 26.8985 4.34315 25.5981 6.08041 25.0505C6.28086 24.9821 6.54813 24.8452 6.74858 24.7767C6.88222 24.7767 6.94904 24.6399 7.14949 24.4345ZM50.8482 29.5678C51.4496 29.3625 51.9841 29.0887 52.5855 28.8834C52.9864 28.7465 53.3873 28.8834 53.5209 29.4309C52.9196 29.9785 52.3182 30.6629 51.7169 31.2105C50.5142 32.3056 50.0464 33.7429 50.1132 35.3855C50.1801 36.5491 50.581 36.9597 51.7837 36.8913C54.6568 36.6175 56.7282 33.8798 56.3273 30.7998C56.1268 29.3625 55.5923 28.1305 54.3896 27.3092C52.8528 26.2141 51.1155 26.9669 50.9151 28.678C50.8482 28.9518 50.8482 29.294 50.8482 29.5678C50.8482 29.6363 50.8482 29.7047 50.7814 29.7047C50.7814 29.6363 50.7814 29.6363 50.8482 29.5678ZM31.0702 11.9093C30.402 12.936 29.9343 13.6204 29.4666 14.2364C28.7984 15.1262 28.1302 16.0844 27.2616 16.8373C25.0566 18.7537 22.9185 20.6701 20.5798 22.3812C17.9071 24.2976 15.769 26.6932 14.2322 29.6363C13.9649 30.1838 13.6308 30.8682 13.1631 31.2105C12.2276 31.8949 12.1608 32.7847 12.2276 33.8113C12.3613 37.0966 12.5617 40.3819 13.0963 43.5988C13.6308 46.4734 14.4326 49.2796 15.6353 52.0174C17.0385 55.1658 19.2435 57.356 22.5844 58.1773C23.5866 58.4511 24.5889 58.7249 25.5912 58.9302C30.7361 60.0937 35.547 59.204 40.1574 56.5347C42.1619 55.3711 43.6987 53.7969 44.8346 51.7436C46.1042 49.2796 47.1733 46.7472 47.641 43.941C48.0419 41.3401 48.376 38.7393 48.7101 36.2069C48.8437 35.3171 48.9773 34.4273 48.6433 33.4007C47.5074 33.4007 46.7724 32.7162 46.0374 31.8949C45.1019 30.8682 44.0997 29.91 43.1642 28.9518C38.6206 24.4345 34.8788 19.3697 32.0725 13.6204C31.8052 13.1413 31.5379 12.6622 31.0702 11.9093ZM45.436 79.9424C44.0997 79.1896 42.7633 79.3265 41.4938 79.258C40.1574 79.1896 38.8211 79.1896 37.4179 79.1896C36.1484 79.1896 34.9456 78.8473 33.7429 78.9842C33.342 81.4482 33.5425 85.4864 34.077 87.4713C36.0147 87.6766 37.9524 87.129 39.957 87.0606C42.0283 87.0606 44.0997 87.1975 46.171 86.3077C46.1042 85.4864 46.1042 84.6651 45.9706 83.9122C45.8369 82.6118 45.6365 81.3113 45.436 79.9424ZM31.9388 79.0527C29.3998 78.7789 23.453 79.1896 21.6489 79.7371C21.5821 80.9691 21.5153 82.2695 21.5153 83.57C21.5153 84.802 20.9139 86.1708 21.7826 87.3344C24.188 87.5397 31.0034 87.4713 32.4066 87.1975C32.3397 84.9388 32.2729 82.6802 32.1393 80.3531C32.0725 80.0109 32.0057 79.6002 31.9388 79.0527ZM10.2231 79.1896C9.88901 81.6535 9.35447 83.9122 9.68856 86.3077C13.0963 86.5815 16.3703 86.7868 19.8448 87.0606C20.1121 85.6917 20.1121 84.4597 20.1121 83.2962C20.0453 82.0642 20.513 80.6953 19.8448 79.4633C16.7044 79.4633 13.564 79.3265 10.2231 79.1896ZM32.7407 70.7025C35.6806 71.3185 41.2933 70.9763 43.8992 70.0865C43.6319 68.1701 43.231 66.2537 42.2956 64.4741C41.761 63.5159 41.3601 63.3106 40.3579 63.6528C38.8211 64.2004 37.2843 64.4741 35.6806 64.7479C34.6116 64.8848 33.4756 65.1586 32.2729 65.3639C32.4734 67.2119 32.607 68.923 32.7407 70.7025ZM44.9015 78.026C44.9683 75.8358 44.6342 73.6456 43.966 71.8661C42.2288 72.003 40.3579 72.1399 38.5538 72.3452C36.7497 72.5505 34.8788 72.0714 33.0747 72.6874C32.9411 74.3301 33.0079 75.8358 33.4088 77.3416C37.2843 78.0945 41.026 77.4785 44.9015 78.026ZM11.8267 71.5239C10.8913 73.9878 10.624 75.4936 10.624 77.41C13.2967 78.2314 17.9071 78.4367 20.3126 77.7522C20.513 76.1096 20.7135 74.4669 20.9139 72.619C17.8403 72.2767 14.9003 71.8661 11.8267 71.5239ZM47.7746 86.0339C50.6478 86.2393 54.5232 85.8971 56.1268 85.3495C56.1937 83.2277 55.8596 81.1744 55.2582 79.0527C53.855 79.1211 52.5187 79.258 51.1823 79.3265C49.7792 79.3949 48.376 79.3265 46.9728 80.0793C47.2401 82.0642 47.5074 83.9806 47.7746 86.0339ZM19.4439 63.3106C18.0408 63.995 16.9049 64.611 15.7021 65.0217C14.4326 65.4324 13.6976 66.3221 13.2299 67.4857C12.9626 68.1017 12.6954 68.6492 12.4281 69.2652C12.3613 69.539 12.3613 69.8128 12.2944 70.2234C15.2344 70.6341 18.1076 71.0448 21.0476 71.1816C21.7157 68.9914 21.9162 66.8012 22.3839 64.5426C21.3148 64.1319 20.3794 63.7213 19.4439 63.3106ZM20.5798 62.1471C24.3216 64.5426 34.5447 64.3373 39.4224 62.2839C39.1552 61.8733 38.9547 61.4626 38.6874 61.052C38.3533 60.5728 38.0193 60.1622 37.6852 59.7515C35.0125 60.5044 32.5402 61.1888 29.8007 61.1204C27.0612 61.052 24.4553 60.3675 21.7157 59.7515C21.3148 60.5729 20.9807 61.2573 20.5798 62.1471ZM54.8573 77.2731C54.1223 74.8776 53.4541 72.7558 51.9841 70.9079C49.846 71.0448 47.8414 71.1816 45.8369 71.6607C45.9037 74.4669 46.3046 76.6571 47.0396 78.1629C49.2446 77.9576 51.4496 77.8207 53.6546 77.6154C53.9219 77.6154 54.2559 77.4785 54.8573 77.2731ZM21.8494 78.026C23.7203 77.8891 25.2571 77.8891 26.8607 77.7522C28.4643 77.6154 30.2016 77.9576 31.872 77.2731C31.8052 75.6989 31.8052 74.1932 31.4043 72.7558C29.1325 72.5505 23.9207 72.7558 22.3839 73.0981C22.2503 74.1247 22.0498 75.2198 21.8494 76.3834C21.7826 76.7256 21.8494 77.2047 21.8494 78.026ZM22.5844 71.3185C24.2548 71.3185 25.658 71.387 26.9943 71.3185C28.3975 71.2501 29.8675 71.5923 31.2707 70.8394C31.2707 68.9914 31.4043 67.2803 30.8698 65.5692C28.7984 65.1586 25.1903 65.0217 23.5866 65.2955C23.2525 67.1435 22.9185 69.0599 22.5844 71.3185ZM8.88675 78.8473C7.68403 78.642 6.74858 78.4367 5.81314 78.2998C4.87769 78.1629 3.94224 78.0945 2.93998 77.9576C2.2718 80.2162 1.87089 82.338 1.93771 84.4597C4.61042 85.8971 5.94677 86.1708 8.08494 85.8286C8.35221 83.6384 8.61948 81.3798 8.88675 78.8473ZM10.7576 30.1838C10.5572 29.0887 10.3567 28.3358 9.88901 27.7198C9.0872 26.6932 8.01812 26.1456 6.74858 26.4194C5.61268 26.6247 5.07814 27.5829 4.74405 28.6096C4.34315 30.0469 4.34315 31.4842 4.81087 32.9216C5.21178 34.222 6.08041 35.1802 7.28312 35.7962C8.28539 36.3437 9.28765 36.686 10.4904 36.1384C10.4904 34.838 10.4904 33.5375 10.4904 32.2371C9.42129 31.2105 8.41902 30.2522 7.41676 29.294C7.61721 28.678 8.08494 28.6096 8.55266 28.8834C9.28765 29.2256 9.88901 29.6363 10.7576 30.1838ZM6.54813 70.3603C4.94451 72.2767 3.74179 74.1247 3.47452 76.7256C5.41223 76.8625 7.14949 77.4785 9.0872 77.2047C9.28765 76.2465 9.48811 75.2883 9.68856 74.3301C9.88901 73.3718 10.0895 72.4821 10.3567 71.387C9.02038 70.9763 7.88448 70.7025 6.54813 70.3603ZM50.8482 69.1968C49.846 67.8963 48.7101 67.0066 47.5074 66.3221C45.8369 65.3639 45.5696 65.2955 44.1665 65.227C44.5674 66.8012 44.9683 68.3754 45.5028 69.8812C47.3069 70.0181 48.9773 69.8128 50.8482 69.1968ZM12.1608 67.1435C10.4236 67.4172 9.0872 68.0332 8.01812 69.1968C8.88675 69.9497 9.82219 69.8812 10.8913 69.8812C11.2922 68.9914 11.7599 68.1017 12.1608 67.1435Z" fill="#222B6C"/>
<path fill-rule="evenodd" clip-rule="evenodd" d="M27.128 39.5605C27.7962 41.6823 29.333 42.5721 31.0034 43.1196C31.137 43.8725 30.6693 44.1463 30.2016 44.2832C29.5334 44.4885 28.9321 44.3516 28.3975 44.0094C27.128 43.1881 26.1925 42.093 25.5912 40.7925C25.0566 39.6974 25.3907 38.4654 26.3262 37.7126C26.7271 37.3703 27.2616 37.0966 27.6625 36.8912C28.2639 35.2486 28.1971 33.6059 28.3307 31.9633C28.3975 31.2104 28.3975 30.526 28.5311 29.7731C28.598 29.5677 28.9989 29.2255 29.1993 29.2255C29.3998 29.2255 29.667 29.5677 29.8007 29.8415C29.9343 30.1837 29.9343 30.6628 29.9343 31.0735C29.9343 32.3739 30.0011 33.6744 29.9343 34.9748C29.667 37.6441 29.4666 38.0548 27.128 39.5605Z" fill="#222B6C"/>
<path fill-rule="evenodd" clip-rule="evenodd" d="M36.3488 48.2529C36.8833 48.8689 36.6829 49.2795 36.4156 49.6902C35.0125 51.7435 30.8029 53.2493 28.4643 52.5648C26.7271 52.0173 25.0566 51.1275 23.8539 49.6217C23.7203 49.4849 23.7203 49.1426 23.7871 48.9373C23.9207 48.8004 24.2548 48.6635 24.3884 48.732C24.7893 48.8689 25.1234 49.0742 25.4575 49.2111C26.1925 49.5533 26.8607 49.964 27.5957 50.3062C29.0657 51.0591 30.5357 51.1275 32.0057 50.4431C33.1416 49.8955 34.2775 49.2111 35.4134 48.6635C35.6806 48.5266 36.0147 48.3898 36.3488 48.2529Z" fill="#222B6C"/>
<path fill-rule="evenodd" clip-rule="evenodd" d="M38.6206 36.2068C38.487 36.7544 38.487 37.2335 38.2865 37.6441C38.1529 37.9179 37.752 38.2601 37.4179 38.2601C37.0838 38.2601 36.6161 38.0548 36.4156 37.781C35.7474 36.7544 35.7474 35.6593 36.282 34.5642C36.4156 34.2904 36.8833 34.0166 37.2174 34.0166C37.5515 34.0166 38.0192 34.2904 38.1529 34.5642C38.4202 35.1117 38.487 35.7277 38.6206 36.2068Z" fill="#222B6C"/>
<path fill-rule="evenodd" clip-rule="evenodd" d="M22.7848 35.933C22.718 36.3437 22.718 36.549 22.6512 36.8228C22.5176 37.5757 22.0498 37.9863 21.3817 37.9863C20.7135 37.9863 20.1789 37.5757 20.1121 36.8228C20.0453 36.1383 20.0453 35.3855 20.1789 34.701C20.2458 34.2219 20.6467 33.8797 21.1812 33.8113C21.7158 33.7428 22.1167 34.0166 22.3171 34.4957C22.5844 34.9748 22.6512 35.5223 22.7848 35.933Z" fill="#222B6C"/>
<path fill-rule="evenodd" clip-rule="evenodd" d="M37.017 26.6246C37.4847 26.7615 38.2197 26.8984 38.9547 27.1037C39.1552 27.1722 39.4224 27.5828 39.3556 27.8566C39.3556 28.062 38.9547 28.4042 38.7542 28.4042C37.8188 28.3357 36.8834 28.2673 35.9479 28.062C35.547 27.9935 35.2129 27.7197 35.3465 27.2406C35.4134 27.0353 35.7475 26.83 36.0147 26.6931C36.2152 26.6246 36.4824 26.6931 37.017 26.6246Z" fill="#222B6C"/>
<path fill-rule="evenodd" clip-rule="evenodd" d="M23.1189 25.8033C22.6512 26.1456 22.3171 26.4193 21.983 26.5562C21.1812 26.9669 20.3794 27.3091 19.5776 27.5829C19.3771 27.6513 18.9762 27.5829 18.9762 27.5144C18.8426 27.2407 18.7758 26.8985 18.9094 26.6247C19.043 26.3509 19.3103 26.0771 19.5776 25.9402C20.3794 25.4611 21.3148 25.0505 22.3171 25.2558C22.5175 25.2558 22.718 25.5296 23.1189 25.8033Z" fill="#222B6C"/>
</g>
<defs>
<clipPath id="clip0_166_175">
<rect width="59" height="95" fill="white"/>
</clipPath>
</defs>
</svg>
