<?xml version="1.0" encoding="utf-8"?>
<!-- Generator: Adobe Illustrator 23.0.6, SVG Export Plug-In . SVG Version: 6.00 Build 0)  -->
<svg version="1.1" id="圖層_1" xmlns="http://www.w3.org/2000/svg" xmlns:xlink="http://www.w3.org/1999/xlink" x="0px" y="0px"
	 viewBox="0 0 48 48" style="enable-background:new 0 0 48 48;" xml:space="preserve">
<style type="text/css">
	.st0{fill:#54B2A5;}
</style>
<path class="st0" d="M13,46c-0.8,0-1.5-0.3-2.1-0.9C10.3,44.5,10,43.8,10,43V5c0-0.8,0.3-1.5,0.9-2.1C11.5,2.3,12.2,2,13,2h22
	c0.8,0,1.5,0.3,2.1,0.9C37.7,3.5,38,4.2,38,5v38c0,0.8-0.3,1.5-0.9,2.1C36.5,45.7,35.8,46,35,46H13z M24,42.2c0.4,0,0.8-0.1,1.1-0.4
	c0.3-0.3,0.4-0.6,0.4-1.1s-0.1-0.8-0.4-1.1c-0.3-0.3-0.6-0.4-1.1-0.4s-0.8,0.1-1.1,0.4c-0.3,0.3-0.4,0.6-0.4,1.1s0.1,0.8,0.4,1.1
	C23.2,42.1,23.6,42.2,24,42.2z M13,35.5h22v-26H13V35.5z"/>
</svg>
